<?xml version="1.0" encoding="UTF-8" standalone="no"?>
<svg
   xmlns:dc="http://purl.org/dc/elements/1.1/"
   xmlns:cc="http://creativecommons.org/ns#"
   xmlns:rdf="http://www.w3.org/1999/02/22-rdf-syntax-ns#"
   xmlns:svg="http://www.w3.org/2000/svg"
   xmlns="http://www.w3.org/2000/svg"
   xmlns:sodipodi="http://sodipodi.sourceforge.net/DTD/sodipodi-0.dtd"
   xmlns:inkscape="http://www.inkscape.org/namespaces/inkscape"
   width="653.58594pt"
   height="413.55078pt"
   viewBox="0 0 653.58593 413.55078"
   version="1.2"
   id="svg6209"
   sodipodi:docname="agh_idub_en_cmyk.pdf"
   inkscape:version="1.0.2 (e86c870879, 2021-01-15)">
  <metadata
     id="metadata6213">
    <rdf:RDF>
      <cc:Work
         rdf:about="">
        <dc:format>image/svg+xml</dc:format>
        <dc:type
           rdf:resource="http://purl.org/dc/dcmitype/StillImage" />
        <dc:title></dc:title>
      </cc:Work>
    </rdf:RDF>
  </metadata>
  <sodipodi:namedview
     pagecolor="#ffffff"
     bordercolor="#666666"
     borderopacity="1"
     objecttolerance="10"
     gridtolerance="10"
     guidetolerance="10"
     inkscape:pageopacity="0"
     inkscape:pageshadow="2"
     inkscape:window-width="1920"
     inkscape:window-height="1025"
     id="namedview6211"
     showgrid="false"
     fit-margin-top="0"
     fit-margin-left="0"
     fit-margin-right="0"
     fit-margin-bottom="0"
     inkscape:zoom="0.75717345"
     inkscape:cx="413.52042"
     inkscape:cy="273.21004"
     inkscape:window-x="0"
     inkscape:window-y="55"
     inkscape:window-maximized="0"
     inkscape:current-layer="svg6209" />
  <defs
     id="defs6164">
    <clipPath
       id="clip1">
      <path
         d="M 527,94.730469 H 764.39062 V 333 H 527 Z m 0,0"
         id="path6158" />
    </clipPath>
    <clipPath
       id="clip2">
      <path
         d="m 476.74219,419 h 287.64843 v 46 H 476.74219 Z m 0,0"
         id="path6161" />
    </clipPath>
  </defs>
  <g
     id="surface79094"
     transform="translate(-110.80469,-92.730469)">
    <path
       style="fill:#211e1e;fill-opacity:1;fill-rule:nonzero;stroke:none"
       d="m 145.13281,479.47266 h -14.30859 l 7.05469,-21.40235 z m 8.58985,25.35156 h 17.83984 c 0,0 -19.74219,-55.51172 -19.75,-55.52735 -2.21484,-6.24218 -6.99609,-7.20703 -8.53125,-7.20703 h -17.23828 c 2.64453,2.16016 3.55859,3.57422 3.55859,5.73828 0,1.31641 -0.29297,2.32422 -1.73047,6.58204 l -17.0664,50.41796 h 11.65625 l 5.15625,-15.64062 h 20.80859 z m 0,0"
       id="path6166" />
    <path
       style="fill:#211e1e;fill-opacity:1;fill-rule:nonzero;stroke:none"
       d="m 226.05078,495.93359 v -20.00781 c 0,-3.82812 -0.8125,-5.78906 -3.53125,-8.21094 l 12.88281,0.004 c 3.98047,0 7.39453,3.22656 7.39453,7.29687 v 28.39844 c -6.29296,1.85156 -12.67578,2.86719 -18.5039,2.86719 -22.30078,0 -36.4375,-13.00781 -36.4375,-32.25 0,-18.78516 14.16406,-33.42578 36.74219,-33.42578 5.14062,0 10.01953,0.90234 14.4414,2.5039 v 12.55469 c -3.96094,-2.61328 -8.98047,-4.17578 -14.4414,-4.17578 -10.82422,0 -19.34766,7.46094 -19.34766,21.24609 0,14.6211 6.45703,23.57422 16.82031,23.57422 1.30078,0 2.58985,-0.0937 3.98047,-0.375"
       id="path6168" />
    <path
       style="fill:#211e1e;fill-opacity:1;fill-rule:nonzero;stroke:none"
       d="m 287.46484,450.19531 c 0,-4.47656 -3.53125,-8.10547 -7.88672,-8.10547 h -12.48437 c 2.71875,2.42188 3.53125,4.38282 3.53125,8.20703 v 54.53125 h 16.83984 v -26.3789 h 19.15625 v 26.3789 h 16.79297 v -62.55078 h -16.79297 v 25.53125 h -19.15625 z m 0,0"
       id="path6170" />
    <path
       style="fill:#b00f26;fill-opacity:1;fill-rule:nonzero;stroke:none"
       d="m 262.41406,400.26953 c 13.94531,-9.58594 26.14063,-24.39844 26.14453,-55.76562 V 156.30078 h 13.9375 v 188.20313 c 0,34.85156 -17.42187,48.79296 -40.08203,55.76562"
       id="path6172" />
    <path
       style="fill:#b00f26;fill-opacity:1;fill-rule:nonzero;stroke:none"
       d="m 273.75,400.26953 c 13.07422,-6.10156 35.72266,-17.42578 35.72266,-55.76562 V 156.30078 h 13.9414 v 188.20313 c 0,47.05078 -36.58984,54.01953 -49.66406,55.76562"
       id="path6174" />
    <path
       style="fill:#b00f26;fill-opacity:1;fill-rule:nonzero;stroke:none"
       d="m 253.70312,400.26953 c 10.40235,-10.46094 13.9375,-31.36719 13.9375,-59.25 V 156.30078 h 13.94532 v 188.20313 c 0,31.27343 -10.45313,47.05078 -27.88282,55.76562"
       id="path6176" />
    <path
       style="fill:#211e1e;fill-opacity:1;fill-rule:nonzero;stroke:none"
       d="m 185.74219,93.5625 c 13.94531,9.58594 26.14062,24.39844 26.14062,55.76562 v 216.08594 h 13.94141 V 149.32812 c 0,-34.85156 -17.42578,-48.79296 -40.08203,-55.76562"
       id="path6178" />
    <path
       style="fill:#211e1e;fill-opacity:1;fill-rule:nonzero;stroke:none"
       d="m 197.07812,93.5625 c 13.06641,6.101562 35.72266,17.42969 35.72266,55.76562 v 216.08594 h 13.9375 V 149.32812 c 0,-47.05078 -36.59375,-54.019526 -49.66016,-55.76562"
       id="path6180" />
    <path
       style="fill:#211e1e;fill-opacity:1;fill-rule:nonzero;stroke:none"
       d="m 177.03125,93.5625 c 10.40234,10.45703 13.9375,31.37109 13.9375,59.25 v 212.60547 l 13.94531,-0.004 V 149.32812 c 0,-31.27343 -10.45703,-47.05078 -27.88281,-55.76562"
       id="path6182" />
    <path
       style="fill:#006b3a;fill-opacity:1;fill-rule:nonzero;stroke:none"
       d="m 175.28906,400.26953 c -13.94531,-9.58594 -26.13672,-24.39844 -26.14062,-55.76562 V 156.30078 h -13.94141 v 188.20313 c 0,34.85156 17.42578,48.79296 40.08203,55.76562"
       id="path6184" />
    <path
       style="fill:#006b3a;fill-opacity:1;fill-rule:nonzero;stroke:none"
       d="m 163.95312,400.26953 c -13.07031,-6.10156 -35.72265,-17.42578 -35.72265,-55.76562 V 156.30078 h -13.94141 v 188.20313 c 0,47.05078 36.59375,54.01953 49.66406,55.76562"
       id="path6186" />
    <path
       style="fill:#006b3a;fill-opacity:1;fill-rule:nonzero;stroke:none"
       d="m 184,400.26953 c -10.40234,-10.46094 -13.94141,-31.36719 -13.94141,-59.25 V 156.30078 h -13.9414 v 188.20313 c 0,31.27343 10.45703,47.05078 27.88281,55.76562"
       id="path6188" />
    <path
       style="fill:none;stroke:#636161;stroke-width:1;stroke-linecap:butt;stroke-linejoin:miter;stroke-miterlimit:10;stroke-opacity:1"
       d="M 4.8125e-4,0.00183125 V -411.22082"
       transform="matrix(1,0,0,-1,400.4878,92.7323)"
       id="path6190" />
    <g
       clip-path="url(#clip1)"
       clip-rule="nonzero"
       id="g6194">
      <path
         style="fill:#eb1923;fill-opacity:1;fill-rule:nonzero;stroke:none"
         d="m 738.01953,285.91406 -0.10937,0.0117 c 0,10.86328 -8.8086,19.67188 -19.67188,19.67188 l 0.10156,0.10937 h -66.01562 l -0.0117,-0.10937 c -10.86719,0 -19.67188,-8.8086 -19.67188,-19.67188 l -0.10937,0.10156 V 127.69141 c -0.004,-18.20313 -14.76172,-32.957035 -32.96484,-32.957035 H 560 c -18.20313,0 -32.95703,14.757815 -32.95703,32.960935 v 39.5625 c 0.004,18.20313 14.75781,32.96094 32.96484,32.96094 h 32.96485 v -26.37109 h -32.96875 c -3.64063,0 -6.58594,-2.95313 -6.58985,-6.59375 v -39.5586 c 0,-3.63672 2.94922,-6.58984 6.58985,-6.59375 h 39.5625 v 0.004 c 3.64062,0 6.58984,2.94922 6.59375,6.58984 v 158.2421 c 0,25.48047 20.66406,46.14062 46.14843,46.14062 h 65.9375 c 25.48438,0 46.14453,-20.66406 46.14453,-46.15234 v -65.93359 c -0.004,-25.48438 -20.66406,-46.14453 -46.15234,-46.14453 h -72.52344 v 26.37109 h 72.51172 l 0.0117,0.10937 c 10.86328,0 19.67188,8.8086 19.67188,19.66797 l 0.10937,-0.0977 z m 0,0"
         id="path6192" />
    </g>
    <path
       style="fill:#5e218a;fill-opacity:1;fill-rule:nonzero;stroke:none"
       d="m 573.83594,173.84766 h 19.13672 v 26.37109 z m 0,0"
       id="path6196" />
    <path
       style="fill:#5e218a;fill-opacity:1;fill-rule:nonzero;stroke:none"
       d="m 664.74219,200.21875 h -19.02344 v -26.37109 z m 0,0"
       id="path6198" />
    <path
       style="fill:#6e6b6e;fill-opacity:1;fill-rule:nonzero;stroke:none"
       d="m 526.80469,501.10156 h -7.25782 v -7.83594 h 6.74219 V 491.25 h -6.74219 v -7 h 7.25782 v -2.01563 h -9.32813 v 20.88282 h 9.32813 z m 9.39062,-8.55469 4.69141,-10.3125 h -2.04297 l -3.89063,8.58204 -3.9414,-8.58204 h -2.21875 l 4.72265,9.91016 -5.07031,10.97266 h 2.07422 l 4.20313,-9.2461 4.26171,9.2461 h 2.27735 z m 18.07031,-9.15625 c -0.82031,-0.9414 -2.17578,-1.41406 -4.07421,-1.41406 h -1.09766 c -1.94141,0 -3.32422,0.56641 -4.16016,1.69922 -0.83593,1.13281 -1.2539,2.92969 -1.2539,5.38672 v 7.74609 c 0,2.2461 0.30078,3.82813 0.89453,4.75391 0.78515,1.20703 2.10937,1.8125 3.97265,1.8125 h 2.01563 c 3.26562,0 4.89844,-2.00781 4.89844,-6.01953 0,-0.53516 -0.0117,-0.94922 -0.0312,-1.23828 h -2.1875 v 0.51953 c 0,1.91797 -0.17578,3.16797 -0.51953,3.74609 -0.38282,0.64844 -1.2461,0.97656 -2.58985,0.97656 h -1.125 c -1.38281,0 -2.26562,-0.36718 -2.64844,-1.09765 -0.32812,-0.59375 -0.49218,-1.98047 -0.49218,-4.15235 v -7.03906 c 0,-1.90234 0.19531,-3.1914 0.57812,-3.86328 0.44141,-0.77344 1.29688,-1.15625 2.5625,-1.15625 h 1.125 c 1.20703,0 2.04297,0.35547 2.50391,1.06641 0.40234,0.65234 0.60547,1.85156 0.60547,3.59765 v 0.26172 h 2.21875 c 0.0195,-0.23047 0.0273,-0.55859 0.0273,-0.98047 0,-2.1289 -0.41016,-3.66406 -1.22266,-4.60547 m 13.92188,17.71094 h -7.25781 v -7.83594 h 6.74218 V 491.25 h -6.74218 v -7 h 7.25781 v -2.01563 h -9.33203 v 20.88282 h 9.33203 z m 11.57812,0 h -6.19531 V 482.23437 H 571.5 v 20.88282 h 8.26562 z m 10.71094,0 h -6.1914 v -18.86719 h -2.07032 v 20.88282 h 8.26172 z m 11.77735,0 h -7.25782 v -7.83594 h 6.74219 V 491.25 h -6.74219 v -7 h 7.25782 v -2.01563 h -9.32813 v 20.88282 h 9.32813 z m 16.1289,-18.86719 h -2.01953 v 18.55079 l -7.74609,-18.55079 h -3.05078 v 20.88282 h 2.01562 v -18.23047 l 7.63281,18.23047 h 3.16797 z m 14.67188,1.15625 c -0.81641,-0.9414 -2.17188,-1.41406 -4.07422,-1.41406 h -1.09375 c -1.94141,0 -3.32813,0.56641 -4.16406,1.69922 -0.83204,1.13281 -1.25,2.92969 -1.25,5.38672 v 7.74609 c 0,2.2461 0.29687,3.82813 0.89062,4.75391 0.78516,1.20703 2.11328,1.8125 3.97266,1.8125 h 2.01562 c 3.26563,0 4.89844,-2.00781 4.89844,-6.01953 0,-0.53516 -0.0117,-0.94922 -0.0312,-1.23828 h -2.1875 v 0.51953 c 0,1.91797 -0.17188,3.16797 -0.51953,3.74609 -0.38281,0.64844 -1.2461,0.97656 -2.58985,0.97656 h -1.12109 c -1.38672,0 -2.26953,-0.36718 -2.65234,-1.09765 -0.32813,-0.59375 -0.48828,-1.98047 -0.48828,-4.15235 v -7.03906 c 0,-1.90234 0.1914,-3.1914 0.57421,-3.86328 0.44141,-0.77344 1.29688,-1.15625 2.56641,-1.15625 h 1.12109 c 1.20704,0 2.04297,0.35547 2.50391,1.06641 0.40625,0.65234 0.60547,1.85156 0.60547,3.59765 v 0.26172 H 634.25 c 0.0195,-0.23047 0.0273,-0.55859 0.0273,-0.98047 0,-2.1289 -0.40625,-3.66406 -1.22265,-4.60547 m 13.92187,17.71094 h -7.25781 v -7.83594 h 6.74219 V 491.25 h -6.74219 v -7 h 7.25781 v -2.01563 h -9.32812 v 20.88282 h 9.32812 z m 13.47656,-18.86719 h -2.07421 v 20.87891 h 2.07421 z m 17.19532,0 h -2.01563 v 18.55079 l -7.74609,-18.55079 h -3.05469 v 20.88282 h 2.01563 v -18.23047 l 7.63281,18.23047 h 3.16797 z m 6.42187,0 h -2.07422 v 20.87891 h 2.07422 z m 13.85156,0.0312 h -11 v 2.01563 h 4.46094 v 18.83594 h 2.07422 V 484.2812 h 4.46484 z m 4.89454,-0.0312 h -2.07422 v 20.87891 h 2.07422 z m 11.03125,0 h -2.42188 l -5.98828,20.88282 h 2.07422 l 1.29297,-4.4961 h 7.25781 l 1.17969,4.4961 h 2.24609 z m -4.49219,14.45704 3.22265,-11.63282 2.96875,11.63282 z m 20.82031,-14.42579 h -11 v 2.01563 h 4.46094 v 18.83594 h 2.07422 v -18.83594 h 4.46484 z m 4.89453,-0.0312 h -2.07422 v 20.87891 h 2.07422 z m 14.08203,0 -4.72265,18.08594 -4.32032,-18.08594 h -2.21484 l 5.26563,20.88282 h 2.42187 l 5.64453,-20.88282 z m 14.14063,18.86719 h -7.25781 v -7.83594 h 6.73828 V 491.25 h -6.73828 v -7 h 7.25781 v -2.01563 h -9.33203 v 20.88282 h 9.33203 z m 0,0"
       id="path6200" />
    <g
       clip-path="url(#clip2)"
       clip-rule="nonzero"
       id="g6204">
      <path
         style="fill:#6e6b6e;fill-opacity:1;fill-rule:nonzero;stroke:none"
         d="m 501.75,420.45703 h -9.62109 v 32.78516 c 0,1.14843 -0.16016,1.9414 -0.47657,2.375 -0.3164,0.4375 -1.05078,0.65625 -2.19531,0.65625 -0.95312,0 -1.60547,-0.16016 -1.96094,-0.47657 -0.47656,-0.35546 -0.71484,-1.20703 -0.71484,-2.55468 v -32.78516 h -10.03906 v 29.16406 c 0,2.92969 0.10156,5.08594 0.30078,6.47266 0.3164,2.01953 0.94922,3.64453 1.89844,4.87109 1.03125,1.34766 2.59375,2.23828 4.69531,2.67188 1.22265,0.27734 3.08594,0.41797 5.58203,0.41797 2.45312,0 4.3125,-0.14063 5.58203,-0.41797 2.09766,-0.4336 3.64063,-1.3086 4.63281,-2.61328 0.98828,-1.3086 1.64453,-2.92969 1.96094,-4.8711 0.23828,-1.42578 0.35547,-3.60156 0.35547,-6.53125 z m 38.90625,0 h -9.08984 l 0.59375,34.03516 -7.78125,-34.03516 h -14.13672 v 43.05859 h 9.08984 l -0.65234,-34.98046 7.89843,34.98046 h 14.07813 z m 18.88672,0 h -10.03906 v 43.05859 h 10.03906 z m 24.58984,0 -3.80078,37.71484 -3.68359,-37.71484 H 566.3125 l 6,43.05859 h 16.09766 l 6.05859,-43.05859 z m 36.64844,35.33984 h -9.74219 v -10.6914 h 8.375 v -7.42578 h -8.375 v -9.50391 h 8.90625 v -7.71875 H 601 v 43.05859 h 19.78125 z m 32.96094,-24.29296 c 0,-4.51563 -1.16797,-7.54688 -3.51172,-9.08985 -2.0625,-1.30469 -5.99219,-1.95703 -11.78516,-1.95703 h -10.47656 v 43.05859 h 10.05859 v -14.78906 h 1.66797 c 1.46485,0 2.48828,0.28125 3.0625,0.83203 0.57813,0.55469 0.86328,1.58594 0.86328,3.08985 v 10.86718 h 9.88282 v -11.28125 c 0,-4.35546 -2.24219,-6.85156 -6.72657,-7.48437 2.46094,-0.4375 4.23828,-1.30859 5.32813,-2.61719 1.08984,-1.30469 1.63672,-3.20312 1.63672,-5.69922 z m -10.75,9.26562 c -0.47266,0.39453 -1.32422,0.59375 -2.55469,0.59375 h -2.43359 v -13.30469 h 2.43359 c 1.23047,0 2.08203,0.19922 2.55469,0.59375 0.47656,0.39844 0.71484,1.22657 0.71484,2.49219 v 7.12891 c 0,1.26953 -0.23828,2.10156 -0.71484,2.49609 m 43.0039,7.30469 c 0,-2.96875 -0.5039,-5.15625 -1.51562,-6.5625 -1.00781,-1.40625 -2.92188,-2.50391 -5.73047,-3.29688 -3.76172,-1.07031 -5.72266,-1.64062 -5.87891,-1.72265 -1.30859,-0.63282 -1.96093,-1.78125 -1.96093,-3.44532 v -2.78906 c 0,-1.14844 0.19531,-1.93359 0.59375,-2.34765 0.39453,-0.41797 1.10937,-0.625 2.13671,-0.625 1.1875,0 1.9375,0.25 2.25782,0.74609 0.3164,0.49219 0.47265,1.37109 0.47265,2.64062 v 2.67188 h 8.91407 v -3.32422 c 0,-3.83984 -0.61719,-6.375 -1.84375,-7.60547 -1.66407,-1.66015 -4.73438,-2.49219 -9.20704,-2.49219 h -2.96875 c -3.80078,0 -6.42578,0.78907 -7.87109,2.3711 -1.44531,1.57812 -2.16797,4.25 -2.16797,8.00781 v 3.97266 c 0,3.0039 0.50391,5.21484 1.51563,6.64062 1.01172,1.42188 2.9414,2.55078 5.79297,3.37891 1.38281,0.3164 2.76953,0.65234 4.15625,1.00781 1.38671,0.35547 2.34375,0.85938 2.88281,1.51172 0.53125,0.65625 0.79687,1.75 0.79687,3.29297 v 3.02344 c 0,1.26562 -0.20312,2.11328 -0.62109,2.55078 -0.41797,0.43359 -1.19922,0.64843 -2.34766,0.64843 -1.9414,0 -2.91015,-1.02734 -2.91015,-3.08593 v -4.15625 h -9.26563 v 4.6914 c 0,3.89844 0.79297,6.58594 2.37891,8.0625 1.58203,1.47657 4.51172,2.21485 8.78906,2.21485 h 2.67188 c 3.8789,0 6.67187,-0.79297 8.375,-2.37891 1.70312,-1.58203 2.55468,-4.17578 2.55468,-7.77734 z m 18.11328,-27.61719 h -10.03515 v 43.05859 h 10.03515 z m 29.75782,0 h -23.51953 v 7.71875 h 6.71093 v 35.33984 h 10.03907 v -35.33984 h 6.76953 z m 20.78906,0 -3.86328,19.48047 -4.15625,-19.48047 h -10.15625 l 8.91015,29.10156 v 13.95703 h 10.03516 v -13.95703 l 8.73438,-29.10156 z m 0,0"
         id="path6202" />
    </g>
    <path
       style="fill:#6e6b6e;fill-opacity:1;fill-rule:nonzero;stroke:none"
       d="m 541.84375,370.30469 c 0,-4.51172 -1.17188,-7.54297 -3.51563,-9.08594 -2.0625,-1.30469 -5.98828,-1.96094 -11.78515,-1.96094 H 516.0625 v 43.0625 h 10.0625 v -14.78906 h 1.66797 c 1.46875,0 2.48828,0.27734 3.0664,0.83203 0.57422,0.55469 0.86329,1.58594 0.86329,3.08984 v 10.86719 h 9.88281 v -11.28515 c 0,-4.35547 -2.2461,-6.84766 -6.73047,-7.48438 2.46094,-0.43359 4.23828,-1.30469 5.33203,-2.60937 1.08984,-1.3086 1.63672,-3.21094 1.63672,-5.70704 z m -10.75,9.26953 c -0.48047,0.39453 -1.32813,0.59375 -2.55469,0.59375 h -2.4375 v -13.3086 h 2.4375 c 1.22656,0 2.07422,0.19922 2.55469,0.59375 0.47266,0.39844 0.71094,1.23047 0.71094,2.5 v 7.125 c 0,1.26954 -0.23828,2.09766 -0.71094,2.4961 m 38.72266,15.02344 h -9.73829 v -10.6875 h 8.375 v -7.42579 h -8.375 v -9.5039 h 8.90625 v -7.72266 h -18.94531 v 43.0625 h 19.77735 z m 31.24218,-7.71875 c 0,-2.96875 -0.5039,-5.15625 -1.51562,-6.56641 -1.00781,-1.40234 -2.91797,-2.5 -5.73047,-3.29297 -3.76172,-1.07031 -5.72266,-1.64453 -5.87891,-1.72266 -1.30859,-0.63281 -1.96093,-1.78125 -1.96093,-3.44531 v -2.79297 c 0,-1.14453 0.19921,-1.92968 0.59375,-2.34765 0.39453,-0.41407 1.10937,-0.6211 2.14062,-0.6211 1.1875,0 1.9375,0.25 2.25391,0.74219 0.3164,0.49609 0.47656,1.37891 0.47656,2.64453 v 2.67188 h 8.91016 v -3.32813 c 0,-3.83984 -0.61719,-6.375 -1.83985,-7.60156 -1.66406,-1.66406 -4.73437,-2.49609 -9.20703,-2.49609 h -2.97266 c -3.80078,0 -6.42578,0.79296 -7.86718,2.375 -1.44922,1.58203 -2.16797,4.25 -2.16797,8.0039 v 3.97266 c 0,3.00781 0.5039,5.21875 1.51172,6.64453 1.00781,1.42187 2.9414,2.54687 5.78906,3.37891 1.38672,0.3164 2.77344,0.65234 4.16016,1.00781 1.38671,0.35547 2.34765,0.85937 2.88281,1.51172 0.53125,0.65234 0.80078,1.75 0.80078,3.28906 v 3.02734 c 0,1.26172 -0.20703,2.11328 -0.625,2.55078 -0.41406,0.4336 -1.19531,0.64844 -2.34766,0.64844 -1.9375,0 -2.90625,-1.02734 -2.90625,-3.08594 v -4.16015 h -9.26562 v 4.69531 c 0,3.89453 0.78906,6.58203 2.375,8.05859 1.58203,1.48047 4.51172,2.21485 8.78906,2.21485 h 2.67188 c 3.88281,0 6.67187,-0.79297 8.3789,-2.375 1.69922,-1.58594 2.55078,-4.17969 2.55078,-7.78125 z m 27.67969,7.71875 h -9.74219 v -10.6875 h 8.375 v -7.42579 h -8.375 v -9.5039 h 8.91016 v -7.72266 h -18.94922 v 43.0625 h 19.78125 z m 27.37891,-35.33985 h -16.03516 l -6.41406,43.0625 h 10.03906 L 644.89062,391.75 H 651.25 l 1.18359,10.57031 h 10.27735 z m -10.33594,25.30469 2.37891,-20.3125 2.19531,20.3125 z m 49.12109,-14.25781 c 0,-4.51172 -1.17187,-7.54297 -3.51172,-9.08594 -2.0625,-1.30469 -5.99218,-1.96094 -11.78906,-1.96094 H 669.125 v 43.0625 h 10.0625 v -14.78906 h 1.66406 c 1.47266,0 2.49219,0.27734 3.07031,0.83203 0.57422,0.55469 0.85938,1.58594 0.85938,3.08984 v 10.86719 h 9.88672 v -11.28515 c 0,-4.35547 -2.2461,-6.84766 -6.73047,-7.48438 2.46094,-0.43359 4.23828,-1.30469 5.32812,-2.60937 1.09375,-1.3086 1.63672,-3.21094 1.63672,-5.70704 z m -10.75,9.26953 c -0.47265,0.39453 -1.32812,0.59375 -2.55468,0.59375 h -2.4336 v -13.3086 h 2.4336 c 1.22656,0 2.08203,0.19922 2.55468,0.59375 0.47657,0.39844 0.71094,1.23047 0.71094,2.5 v 7.125 c 0,1.26954 -0.23437,2.09766 -0.71094,2.4961 m 43.95313,6.65234 h -9.14453 v 5.87891 c 0,1.14844 -0.16016,1.9414 -0.47657,2.375 -0.3164,0.4375 -0.99218,0.65234 -2.01953,0.65234 -1.07031,0 -1.74218,-0.21484 -2.01953,-0.64844 -0.27734,-0.4375 -0.41797,-1.22656 -0.41797,-2.375 v -22.65234 c 0,-0.98828 0.082,-1.67969 0.23828,-2.07422 0.27735,-0.63281 1.01172,-0.94922 2.19922,-0.94922 0.98828,0 1.65235,0.20703 1.98828,0.625 0.33985,0.41407 0.50782,1.21485 0.50782,2.39844 v 4.32813 h 9.14453 v -2.96485 c 0,-4.70312 -0.67188,-7.88281 -2.01953,-9.54687 -0.8711,-1.0625 -2.07813,-1.77735 -3.6211,-2.13282 -1.26953,-0.27734 -3.1875,-0.41796 -5.76172,-0.41796 -2.97265,0 -5.1289,0.14062 -6.47656,0.41796 -1.82031,0.35547 -3.22656,1.07032 -4.21484,2.13672 -0.99219,1.07032 -1.64453,2.41797 -1.96094,4.03907 -0.23828,1.1875 -0.35547,3.03125 -0.35547,5.52343 v 19.89844 c 0,2.49219 0.11719,4.33594 0.35547,5.52344 0.31641,1.66406 0.94922,3.01172 1.89844,4.03906 1.07031,1.14844 2.53515,1.90234 4.39844,2.25781 1.1875,0.19532 3.30468,0.29688 6.35546,0.29688 2.69141,0 4.57422,-0.11719 5.64454,-0.35547 1.62109,-0.32031 2.86718,-1.03906 3.73828,-2.15625 0.87109,-1.11719 1.44531,-2.49609 1.72265,-4.13281 0.19922,-1.19141 0.29688,-3.03516 0.29688,-5.53125 z m 32.78515,-26.96875 h -10.03515 v 16.57422 h -5.22656 v -16.57422 h -10.03907 v 43.0625 h 10.03907 v -18.76953 h 5.22656 v 18.76953 h 10.03515 z m 0,0"
       id="path6206" />
  </g>
</svg>
