<?xml version="1.0" encoding="UTF-8" standalone="no"?>
<svg
   xmlns:dc="http://purl.org/dc/elements/1.1/"
   xmlns:cc="http://creativecommons.org/ns#"
   xmlns:rdf="http://www.w3.org/1999/02/22-rdf-syntax-ns#"
   xmlns:svg="http://www.w3.org/2000/svg"
   xmlns="http://www.w3.org/2000/svg"
   xmlns:sodipodi="http://sodipodi.sourceforge.net/DTD/sodipodi-0.dtd"
   xmlns:inkscape="http://www.inkscape.org/namespaces/inkscape"
   width="77.349884pt"
   height="28.390619pt"
   viewBox="0 0 77.349885 28.390619"
   version="1.2"
   id="svg5470"
   sodipodi:docname="logoncn.svg"
   inkscape:version="1.0.2 (e86c870879, 2021-01-15)">
  <metadata
     id="metadata5476">
    <rdf:RDF>
      <cc:Work
         rdf:about="">
        <dc:format>image/svg+xml</dc:format>
        <dc:type
           rdf:resource="http://purl.org/dc/dcmitype/StillImage" />
        <dc:title></dc:title>
      </cc:Work>
    </rdf:RDF>
  </metadata>
  <defs
     id="defs5474" />
  <sodipodi:namedview
     pagecolor="#ffffff"
     bordercolor="#666666"
     borderopacity="1"
     objecttolerance="10"
     gridtolerance="10"
     guidetolerance="10"
     inkscape:pageopacity="0"
     inkscape:pageshadow="2"
     inkscape:window-width="1920"
     inkscape:window-height="1025"
     id="namedview5472"
     showgrid="false"
     fit-margin-top="0"
     fit-margin-left="0"
     fit-margin-right="0"
     fit-margin-bottom="0"
     inkscape:zoom="4.4794627"
     inkscape:cx="114.08909"
     inkscape:cy="18.927099"
     inkscape:window-x="0"
     inkscape:window-y="55"
     inkscape:window-maximized="0"
     inkscape:current-layer="svg5470"
     inkscape:document-rotation="0" />
  <path
     style="fill:#e31433;fill-opacity:1;fill-rule:evenodd;stroke:none"
     d="m 0,0 h 11.9375 c 1.66796,9.03515 8.40234,16.22265 17.04296,18.3125 V 28.39062 H 28.55468 L 4.78125,9.71875 V 28.39062 H 0 Z M 17.63281,0 H 28.98046 V 12.51172 C 23.38281,10.66797 19.04687,5.92968 17.63281,0 M 21,28.39062 H 9.49609 V 19.52734 L 21,28.39062"
     id="path5413" />
  <g
     id="g8301"
     transform="matrix(0.47887732,0,0,0.47887732,13.279473,16.588785)">
    <g
       id="g8243"
       transform="translate(0.1289,-33)">
      <path
         style="fill:#4c4a4c;fill-opacity:1;fill-rule:nonzero;stroke:none"
         d="M 40.13281,15.04687 V 3.95312 h 1.5039 l 5.82813,8.71094 V 3.95312 H 48.875 V 15.04687 H 47.36718 L 41.53906,6.32812 v 8.71875 z m 0,0"
         id="path5415" />
      <path
         style="fill:#4c4a4c;fill-opacity:1;fill-rule:nonzero;stroke:none"
         d="m 58.17578,11.40234 h 3.00781 L 60.25781,8.94531 C 59.97656,8.19922 59.76562,7.58593 59.6289,7.10156 59.51562,7.67187 59.35546,8.23828 59.14843,8.79687 Z m -2.5625,3.64453 3.41015,-8.875 h 1.26563 l 3.63281,8.875 h -1.33984 l -1.03516,-2.6875 h -3.71094 l -0.97656,2.6875 z m 0,0"
         id="path5417" />
      <path
         style="fill:#4c4a4c;fill-opacity:1;fill-rule:nonzero;stroke:none"
         d="M 70.58593,15.04687 V 7.21875 H 67.66406 V 6.17187 h 7.03515 v 1.04688 h -2.9375 v 7.82812 z m 0,0"
         id="path5419" />
      <path
         style="fill:#4c4a4c;fill-opacity:1;fill-rule:nonzero;stroke:none"
         d="m 80.49218,6.17187 h 1.17578 v 8.875 h -1.17578 z m 0,0"
         id="path5421" />
      <path
         style="fill:#4c4a4c;fill-opacity:1;fill-rule:nonzero;stroke:none"
         d="m 88.98046,10.74218 c 0,1.07032 0.28907,1.91407 0.86329,2.52735 0.57421,0.61719 1.29687,0.92578 2.16406,0.92578 0.88281,0 1.61328,-0.3125 2.18359,-0.93359 0.57031,-0.6211 0.85547,-1.50391 0.85547,-2.64454 0,-0.72265 -0.12109,-1.35546 -0.36719,-1.89453 C 94.4375,8.18359 94.08203,7.76562 93.60937,7.46875 93.14062,7.17187 92.61328,7.02343 92.02734,7.02343 c -0.83203,0 -1.54688,0.28907 -2.14844,0.85938 -0.59765,0.57031 -0.89844,1.52344 -0.89844,2.85937 m -1.21093,-0.0195 c 0,-1.47265 0.39843,-2.625 1.1875,-3.45703 0.79297,-0.83594 1.8125,-1.25 3.0625,-1.25 0.82031,0 1.55859,0.19531 2.21875,0.58594 0.65625,0.39062 1.16015,0.9375 1.5039,1.63672 0.34375,0.70312 0.51563,1.49609 0.51563,2.38281 0,0.90234 -0.17969,1.70703 -0.54297,2.41406 -0.36328,0.71094 -0.87891,1.25 -1.54688,1.61719 -0.66406,0.36328 -1.38281,0.54688 -2.15234,0.54688 -0.83594,0 -1.58203,-0.20313 -2.24219,-0.60547 -0.65625,-0.40235 -1.15625,-0.95313 -1.49609,-1.65235 -0.33594,-0.69922 -0.50781,-1.4375 -0.50781,-2.21875"
         id="path5423" />
      <path
         style="fill:#4c4a4c;fill-opacity:1;fill-rule:nonzero;stroke:none"
         d="m 102.14843,15.04687 v -8.875 h 1.20703 l 4.66016,6.96875 V 6.17187 h 1.12891 v 8.875 h -1.20703 l -4.66016,-6.97656 v 6.97656 z m 0,0"
         id="path5425" />
      <path
         style="fill:#4c4a4c;fill-opacity:1;fill-rule:nonzero;stroke:none"
         d="m 117.09375,11.40234 h 3.00781 l -0.92578,-2.45703 c -0.28125,-0.74609 -0.49219,-1.35938 -0.62891,-1.84375 -0.11328,0.57031 -0.27344,1.13672 -0.48047,1.69531 z m -2.5625,3.64453 3.41015,-8.875 h 1.26563 l 3.63281,8.875 H 121.5 l -1.03516,-2.6875 h -3.71094 l -0.97656,2.6875 z m 0,0"
         id="path5427" />
      <path
         style="fill:#4c4a4c;fill-opacity:1;fill-rule:nonzero;stroke:none"
         d="m 128.11718,15.04687 v -8.875 h 1.17578 V 14 h 4.3711 v 1.04687 z m 0,0"
         id="path5429" />
    </g>
    <g
       id="g8252"
       transform="translate(-107.58594,-17.039033)">
      <path
         style="fill:#4c4a4c;fill-opacity:1;fill-rule:nonzero;stroke:none"
         d="m 147.84765,11.48047 1.38672,-0.11719 c 0.0664,0.55469 0.21875,1.00781 0.45703,1.36328 0.23828,0.35547 0.61328,0.64453 1.11719,0.86328 0.50391,0.21875 1.07031,0.33203 1.70312,0.33203 0.5586,0 1.05469,-0.0859 1.48438,-0.25 0.42578,-0.16797 0.74609,-0.39453 0.95703,-0.6875 0.20703,-0.28906 0.3125,-0.60547 0.3125,-0.94922 0,-0.34765 -0.10156,-0.65234 -0.30469,-0.91015 -0.19922,-0.26172 -0.53125,-0.48047 -0.99609,-0.65625 -0.30078,-0.11719 -0.95703,-0.29688 -1.97656,-0.54297 -1.01953,-0.24219 -1.73438,-0.47266 -2.14063,-0.69141 -0.53125,-0.27734 -0.92578,-0.62109 -1.1875,-1.03125 -0.25781,-0.41406 -0.38672,-0.87109 -0.38672,-1.38281 0,-0.55859 0.15625,-1.08203 0.47657,-1.57031 0.3164,-0.48828 0.78125,-0.85547 1.39062,-1.10938 0.61328,-0.25 1.28906,-0.3789 2.03516,-0.3789 0.82422,0 1.55078,0.13281 2.17968,0.39843 0.625,0.26563 1.10938,0.65625 1.44922,1.16797 0.33594,0.51563 0.51953,1.09766 0.54297,1.75 l -1.40625,0.10547 c -0.0781,-0.70312 -0.33203,-1.23047 -0.76953,-1.58984 -0.4375,-0.35547 -1.08203,-0.53516 -1.93359,-0.53516 -0.89063,0 -1.53516,0.16016 -1.94141,0.48828 -0.40625,0.32422 -0.60937,0.71485 -0.60937,1.17578 0,0.39844 0.14453,0.72657 0.43359,0.98438 0.28125,0.25781 1.01953,0.51953 2.21094,0.78906 1.19531,0.26953 2.01172,0.50781 2.45703,0.70703 0.64453,0.30078 1.12109,0.67578 1.42969,1.13281 0.30859,0.45704 0.46093,0.98438 0.46093,1.57813 0,0.58984 -0.16797,1.14453 -0.5039,1.66797 -0.33985,0.52344 -0.82813,0.92969 -1.46094,1.21875 -0.63281,0.28906 -1.34375,0.4375 -2.13672,0.4375 -1.00391,0 -1.84375,-0.14844 -2.52344,-0.44141 -0.67968,-0.29297 -1.21093,-0.73047 -1.59765,-1.32031 -0.38672,-0.58594 -0.58985,-1.25391 -0.60938,-1.99609"
         id="path5431" />
      <path
         style="fill:#4c4a4c;fill-opacity:1;fill-rule:nonzero;stroke:none"
         d="m 170.26953,11.93359 1.17578,0.29688 c -0.25,0.96484 -0.69141,1.70312 -1.33203,2.20703 -0.64063,0.50781 -1.42188,0.76172 -2.34375,0.76172 -0.95703,0 -1.73438,-0.19532 -2.33594,-0.58594 -0.60156,-0.38672 -1.05469,-0.95313 -1.36719,-1.69141 -0.3125,-0.73828 -0.47265,-1.53125 -0.47265,-2.3789 0,-0.92579 0.17968,-1.73047 0.53125,-2.41797 0.35546,-0.69141 0.85546,-1.21094 1.50781,-1.57032 0.65234,-0.35546 1.36719,-0.53515 2.15234,-0.53515 0.88672,0 1.63281,0.22656 2.24219,0.67969 0.60156,0.44921 1.02344,1.08593 1.26172,1.90625 l -1.15625,0.27343 c -0.20313,-0.64843 -0.50391,-1.11718 -0.89453,-1.41015 -0.39063,-0.29688 -0.88282,-0.44532 -1.47657,-0.44532 -0.68359,0 -1.2539,0.16407 -1.71093,0.49219 -0.46094,0.32813 -0.78125,0.76563 -0.96485,1.31641 -0.1875,0.55078 -0.28125,1.11719 -0.28125,1.70312 0,0.75391 0.11328,1.41407 0.33203,1.98047 0.21875,0.5625 0.5625,0.98047 1.02735,1.26172 0.46094,0.27734 0.96484,0.41797 1.5039,0.41797 0.66016,0 1.21485,-0.19141 1.67188,-0.57031 0.45703,-0.37891 0.76562,-0.94141 0.92969,-1.69141"
         id="path5433" />
      <path
         style="fill:#4c4a4c;fill-opacity:1;fill-rule:nonzero;stroke:none"
         d="m 177.48046,6.17187 h 1.17579 v 8.875 h -1.17579 z m 0,0"
         id="path5435" />
      <path
         style="fill:#4c4a4c;fill-opacity:1;fill-rule:nonzero;stroke:none"
         d="m 185.14062,15.04687 v -8.875 h 6.41797 V 7.21875 H 186.3125 V 9.9375 h 4.91015 v 1.04297 H 186.3125 V 14 h 5.44921 v 1.04687 z m 0,0"
         id="path5437" />
      <path
         style="fill:#4c4a4c;fill-opacity:1;fill-rule:nonzero;stroke:none"
         d="m 197.76171,15.04687 v -8.875 h 1.20313 l 4.66406,6.96875 V 6.17187 h 1.125 v 8.875 h -1.20312 l -4.66016,-6.97656 v 6.97656 z m 0,0"
         id="path5439" />
      <path
         style="fill:#4c4a4c;fill-opacity:1;fill-rule:nonzero;stroke:none"
         d="m 217.45312,11.93359 1.17578,0.29688 c -0.24609,0.96484 -0.6914,1.70312 -1.32812,2.20703 -0.64453,0.50781 -1.42188,0.76172 -2.35157,0.76172 -0.95312,0 -1.73046,-0.19532 -2.33203,-0.58594 -0.60156,-0.38672 -1.05468,-0.95313 -1.36718,-1.69141 -0.3125,-0.73828 -0.47266,-1.53125 -0.47266,-2.3789 0,-0.92579 0.17969,-1.73047 0.53125,-2.41797 0.35547,-0.69141 0.85937,-1.21094 1.50781,-1.57032 0.65235,-0.35546 1.3711,-0.53515 2.15625,-0.53515 0.88281,0 1.63281,0.22656 2.23828,0.67969 0.60547,0.44921 1.02735,1.08593 1.26563,1.90625 L 217.3164,8.8789 c -0.20312,-0.64843 -0.5039,-1.11718 -0.89062,-1.41015 -0.39453,-0.29688 -0.88672,-0.44532 -1.48047,-0.44532 -0.67969,0 -1.25391,0.16407 -1.71094,0.49219 -0.45703,0.32813 -0.77734,0.76563 -0.96484,1.31641 -0.1836,0.55078 -0.28125,1.11719 -0.28125,1.70312 0,0.75391 0.11328,1.41407 0.33203,1.98047 0.22265,0.5625 0.5625,0.98047 1.02734,1.26172 0.46094,0.27734 0.96485,0.41797 1.50781,0.41797 0.66016,0 1.21485,-0.19141 1.66797,-0.57031 0.45703,-0.37891 0.76953,-0.94141 0.92969,-1.69141"
         id="path5441" />
      <path
         style="fill:#4c4a4c;fill-opacity:1;fill-rule:nonzero;stroke:none"
         d="m 224.48828,15.04687 v -8.875 h 6.41797 v 1.04688 h -5.24219 V 9.9375 h 4.91015 v 1.04297 h -4.91015 V 14 h 5.44531 v 1.04687 z m 0,0"
         id="path5443" />
    </g>
    <g
       id="g8260"
       transform="translate(-205.33204,-1.039036)">
      <path
         style="fill:#4c4a4c;fill-opacity:1;fill-rule:nonzero;stroke:none"
         d="m 253.9375,11.15625 1.46484,0.37109 c -0.30859,1.20703 -0.86328,2.125 -1.66016,2.76172 -0.80078,0.63281 -1.77734,0.94531 -2.93359,0.94531 -1.19531,0 -2.16797,-0.24219 -2.91406,-0.72656 -0.75,-0.48828 -1.32032,-1.19531 -1.71485,-2.11719 -0.39062,-0.92187 -0.58593,-1.91406 -0.58593,-2.97265 0,-1.15625 0.22265,-2.16407 0.66406,-3.02344 0.4414,-0.86328 1.07031,-1.51563 1.88281,-1.96094 0.81641,-0.44922 1.71484,-0.67187 2.69141,-0.67187 1.10937,0 2.04297,0.28515 2.80078,0.84765 0.7539,0.56641 1.28125,1.35938 1.58203,2.38672 l -1.44531,0.33984 c -0.25782,-0.80859 -0.63282,-1.39453 -1.1211,-1.76562 -0.48828,-0.36719 -1.10547,-0.55078 -1.84765,-0.55078 -0.85157,0 -1.5625,0.20312 -2.13672,0.61328 -0.57422,0.41016 -0.97266,0.95703 -1.20703,1.64453 -0.23438,0.69141 -0.34766,1.39844 -0.34766,2.13281 0,0.94141 0.13672,1.76563 0.41406,2.46875 0.26953,0.70703 0.69922,1.23047 1.27735,1.57813 0.58203,0.34765 1.21093,0.52344 1.88672,0.52344 0.82031,0 1.51953,-0.23829 2.08984,-0.71094 0.57031,-0.47656 0.95703,-1.17969 1.16016,-2.11328"
         id="path5445" />
      <path
         style="fill:#4c4a4c;fill-opacity:1;fill-rule:nonzero;stroke:none"
         d="m 262.48437,15.04687 v -8.875 h 6.41797 v 1.04688 h -5.24219 V 9.9375 h 4.91016 v 1.04297 h -4.91016 V 14 h 5.44531 v 1.04687 z m 0,0"
         id="path5447" />
      <path
         style="fill:#4c4a4c;fill-opacity:1;fill-rule:nonzero;stroke:none"
         d="m 275.10546,15.04687 v -8.875 h 1.20704 l 4.66015,6.96875 V 6.17187 h 1.12891 v 8.875 h -1.20703 l -4.66016,-6.97656 v 6.97656 z m 0,0"
         id="path5449" />
      <path
         style="fill:#4c4a4c;fill-opacity:1;fill-rule:nonzero;stroke:none"
         d="M 290.72265,15.04687 V 7.21875 h -2.92578 V 6.17187 h 7.03516 v 1.04688 h -2.9336 v 7.82812 z m 0,0"
         id="path5451" />
      <path
         style="fill:#4c4a4c;fill-opacity:1;fill-rule:nonzero;stroke:none"
         d="m 301.62109,10.08984 h 2.52344 c 0.53906,0 0.95703,-0.0547 1.26172,-0.16797 0.30468,-0.10937 0.53125,-0.28906 0.6914,-0.53125 0.15625,-0.24609 0.23438,-0.51172 0.23438,-0.79687 0,-0.42188 -0.15235,-0.76563 -0.45703,-1.03516 -0.30469,-0.26953 -0.78516,-0.40625 -1.44141,-0.40625 h -2.8125 z m -1.17578,4.95703 v -8.875 h 3.9375 c 0.79297,0 1.39062,0.0781 1.80469,0.23828 0.41015,0.16016 0.74218,0.44141 0.98828,0.84375 0.24609,0.40625 0.36718,0.85157 0.36718,1.33985 0,0.6289 -0.20312,1.16015 -0.60937,1.58984 -0.41016,0.43359 -1.03906,0.70703 -1.89063,0.82422 0.3086,0.15234 0.54688,0.29687 0.70704,0.44141 0.34375,0.3164 0.66796,0.71093 0.97656,1.18359 l 1.54297,2.41406 h -1.47657 l -1.17578,-1.84765 c -0.34375,-0.53125 -0.625,-0.9375 -0.84765,-1.22266 -0.21875,-0.28125 -0.41797,-0.48047 -0.59375,-0.59375 -0.17578,-0.11328 -0.35547,-0.19141 -0.53516,-0.23438 -0.13672,-0.0273 -0.35547,-0.043 -0.65625,-0.043 h -1.36328 v 3.9414 z m 0,0"
         id="path5453" />
      <path
         style="fill:#4c4a4c;fill-opacity:1;fill-rule:nonzero;stroke:none"
         d="m 313.79687,15.04687 v -8.875 h 6.41797 v 1.04688 h -5.24219 V 9.9375 h 4.91016 v 1.04297 h -4.91016 V 14 h 5.44922 v 1.04687 z m 0,0"
         id="path5455" />
    </g>
    <g
       id="g8268">
      <path
         style="fill:#4c4a4c;fill-opacity:1;fill-rule:nonzero;stroke:none"
         d="M 41.01953,21.54297 H 42.5 c 0.49218,0 0.83984,-0.0899 1.04296,-0.27344 0.20704,-0.17969 0.3086,-0.4375 0.3086,-0.76953 0,-0.23828 -0.0586,-0.44532 -0.17969,-0.61328 -0.12109,-0.17188 -0.28125,-0.28516 -0.48047,-0.33985 -0.125,-0.0312 -0.36328,-0.0508 -0.70703,-0.0508 h -1.46484 z m -0.75782,3.0039 v -5.72656 h 2.16016 c 0.38281,0 0.67188,0.0195 0.87109,0.0547 0.28125,0.0469 0.51954,0.13672 0.70704,0.26953 0.1914,0.1289 0.34375,0.3164 0.46093,0.55078 0.11328,0.23828 0.17188,0.49609 0.17188,0.78125 0,0.48828 -0.15235,0.89844 -0.46485,1.23828 -0.30859,0.33594 -0.86718,0.50391 -1.67968,0.50391 h -1.46875 v 2.32812 z m 0,0"
         id="path5457" />
      <path
         style="fill:#4c4a4c;fill-opacity:1;fill-rule:nonzero;stroke:none"
         d="m 50.23046,21.76953 c 0,0.6914 0.1836,1.23437 0.55469,1.63281 0.3711,0.39453 0.83594,0.59375 1.39844,0.59375 0.57031,0 1.03906,-0.19922 1.40625,-0.60156 0.37109,-0.39844 0.55469,-0.96875 0.55469,-1.70703 0,-0.46485 -0.0781,-0.8711 -0.23828,-1.22266 -0.15625,-0.34375 -0.38672,-0.61719 -0.69141,-0.80469 -0.30078,-0.19531 -0.64453,-0.28906 -1.01953,-0.28906 -0.53906,0 -1,0.18359 -1.38672,0.55078 -0.38672,0.3711 -0.57813,0.98828 -0.57813,1.84766 m -0.78125,-0.0117 c 0,-0.94922 0.25391,-1.69531 0.76563,-2.23047 0.51172,-0.53906 1.16797,-0.80859 1.97656,-0.80859 0.52735,0 1.00391,0.125 1.42969,0.3789 0.42578,0.25391 0.74609,0.60547 0.96875,1.0586 0.22266,0.44922 0.33594,0.96484 0.33594,1.53515 0,0.58203 -0.11719,1.10157 -0.35157,1.5586 -0.23437,0.45703 -0.5664,0.80468 -0.99609,1.03906 -0.42969,0.23828 -0.89453,0.35547 -1.39062,0.35547 -0.53907,0 -1.02344,-0.12891 -1.44532,-0.39063 -0.42578,-0.25781 -0.74609,-0.61718 -0.96484,-1.0664 -0.21875,-0.44922 -0.32813,-0.92578 -0.32813,-1.42969"
         id="path5459" />
      <path
         style="fill:#4c4a4c;fill-opacity:1;fill-rule:nonzero;stroke:none"
         d="m 60.42968,24.54687 v -5.72656 h 0.75782 v 5.05078 h 2.82031 v 0.67578 z m 0,0"
         id="path5461" />
      <path
         style="fill:#4c4a4c;fill-opacity:1;fill-rule:nonzero;stroke:none"
         d="m 70.33593,22.19531 h 1.94141 l -0.59766,-1.58594 c -0.18359,-0.48047 -0.32031,-0.8789 -0.40625,-1.1875 -0.0742,0.36719 -0.17578,0.73438 -0.30859,1.09375 z m -1.65234,2.35156 2.19922,-5.72656 h 0.8164 l 2.34375,5.72656 H 73.17968 L 72.51171,22.8125 h -2.39453 l -0.6289,1.73437 z m 0,0"
         id="path5463" />
      <path
         style="fill:#4c4a4c;fill-opacity:1;fill-rule:nonzero;stroke:none"
         d="m 79.03906,24.54687 v -5.72656 h 0.77734 l 3.00781,4.49609 v -4.49609 h 0.72657 v 5.72656 h -0.77735 l -3.00781,-4.5 v 4.5 z m 0,0"
         id="path5465" />
      <path
         style="fill:#4c4a4c;fill-opacity:1;fill-rule:nonzero;stroke:none"
         d="m 89.98046,23.87109 h 1.22266 c 0.37891,0 0.67578,-0.0352 0.89063,-0.10547 0.21484,-0.0703 0.38671,-0.16797 0.51171,-0.29687 0.17969,-0.17969 0.32032,-0.42188 0.42188,-0.72657 0.0977,-0.30078 0.14844,-0.66796 0.14844,-1.10156 0,-0.59765 -0.0977,-1.05859 -0.29297,-1.3789 -0.19531,-0.32422 -0.4375,-0.53907 -0.71875,-0.64844 -0.20313,-0.0781 -0.52735,-0.11719 -0.98047,-0.11719 h -1.20313 z m -0.75781,0.67578 v -5.72656 h 1.97266 c 0.44531,0 0.78515,0.0273 1.01953,0.082 0.32812,0.0742 0.60937,0.21094 0.83984,0.41016 0.30469,0.2539 0.52735,0.58203 0.67969,0.98047 0.14844,0.39453 0.22266,0.84765 0.22266,1.35937 0,0.4375 -0.0508,0.82031 -0.15235,1.15625 -0.10156,0.33594 -0.23047,0.61328 -0.39062,0.83203 -0.15625,0.22266 -0.33203,0.39453 -0.51953,0.52344 -0.19141,0.125 -0.41797,0.22266 -0.6836,0.28516 -0.26953,0.0664 -0.57422,0.0976 -0.92187,0.0976 z m 0,0"
         id="path5467" />
    </g>
  </g>
</svg>
