<?xml version="1.0" encoding="UTF-8" standalone="no"?>
<svg
   xmlns:dc="http://purl.org/dc/elements/1.1/"
   xmlns:cc="http://creativecommons.org/ns#"
   xmlns:rdf="http://www.w3.org/1999/02/22-rdf-syntax-ns#"
   xmlns:svg="http://www.w3.org/2000/svg"
   xmlns="http://www.w3.org/2000/svg"
   xmlns:sodipodi="http://sodipodi.sourceforge.net/DTD/sodipodi-0.dtd"
   xmlns:inkscape="http://www.inkscape.org/namespaces/inkscape"
   width="23.922745mm"
   height="12.000097mm"
   viewBox="0 0 23.922745 12.000097"
   version="1.1"
   id="svg4407"
   inkscape:version="1.0.2 (e86c870879, 2021-01-15)"
   sodipodi:docname="logofnp_notext.svg">
  <defs
     id="defs4401">
    <clipPath
       id="clip13">
      <path
         d="m 495,318 h 5 v 6.56641 h -5 z m 0,0"
         id="path307" />
    </clipPath>
    <clipPath
       id="clip14">
      <path
         d="M 450.40234,292 H 457 v 10 h -6.59766 z m 0,0"
         id="path310" />
    </clipPath>
    <clipPath
       id="clip11">
      <path
         d="M 113.38672,303 H 125 v 18 h -11.61328 z m 0,0"
         id="path301" />
    </clipPath>
    <clipPath
       id="clip12">
      <path
         d="m 194,293 h 5.47656 v 8 H 194 Z m 0,0"
         id="path304" />
    </clipPath>
  </defs>
  <sodipodi:namedview
     id="base"
     pagecolor="#ffffff"
     bordercolor="#666666"
     borderopacity="1.0"
     inkscape:pageopacity="0.0"
     inkscape:pageshadow="2"
     inkscape:zoom="1.979899"
     inkscape:cx="276.56177"
     inkscape:cy="-133.49822"
     inkscape:document-units="mm"
     inkscape:current-layer="layer1"
     inkscape:document-rotation="0"
     showgrid="false"
     fit-margin-top="0"
     fit-margin-left="0"
     fit-margin-right="0"
     fit-margin-bottom="0"
     inkscape:window-width="1421"
     inkscape:window-height="1021"
     inkscape:window-x="495"
     inkscape:window-y="55"
     inkscape:window-maximized="0" />
  <metadata
     id="metadata4404">
    <rdf:RDF>
      <cc:Work
         rdf:about="">
        <dc:format>image/svg+xml</dc:format>
        <dc:type
           rdf:resource="http://purl.org/dc/dcmitype/StillImage" />
        <dc:title></dc:title>
      </cc:Work>
    </rdf:RDF>
  </metadata>
  <g
     inkscape:label="Layer 1"
     inkscape:groupmode="layer"
     id="layer1"
     transform="translate(-32.659699,-183.48807)">
    <g
       style="fill:#211e1e;fill-opacity:1"
       id="g335"
       transform="matrix(0.3527778,0,0,0.3527778,-55.694602,80.987791)">
      <g
         id="use333"
         transform="matrix(0.26458333,0,0,0.26458333,113.3858,31.677601)">
        <path
           style="stroke:none"
           d=""
           id="path5248" />
      </g>
    </g>
    <g
       style="fill:#211e1e;fill-opacity:1"
       id="g351"
       transform="matrix(0.3527778,0,0,0.3527778,-55.694602,80.987791)">
      <g
         id="use349"
         transform="matrix(0.26458333,0,0,0.26458333,139.59351,31.677601)">
        <path
           style="stroke:none"
           d=""
           id="path5244" />
      </g>
    </g>
    <path
       style="fill:#1c5cb3;fill-opacity:1;fill-rule:nonzero;stroke:none;stroke-width:0.352778"
       d="m 56.582443,187.78163 c 0,-3.38998 -5.25308,-5.29719 -13.532334,-3.74827 v 0.34451 c 7.956794,-0.72623 11.769825,1.30362 11.769825,4.25538 0,1.05282 -0.307302,1.67983 -0.943956,2.46118 h 0.491959 c 1.1231,-0.59945 2.214506,-1.74873 2.214506,-3.3128 m -15.884646,0.65456 h 1.823145 v -1.27744 h -3.283864 v 4.42902 h 1.460719 v -1.24575 h 1.799717 v -1.24024 h -1.799717 z m -4.413857,-1.27744 h -0.491959 c -1.940278,1.03353 -3.132282,2.42259 -3.132282,4.18648 0,3.85437 6.635256,5.04362 13.588838,3.46577 v -0.34451 c -6.687623,0.47818 -11.305428,-1.31879 -11.305428,-4.49516 0,-1.24437 0.662838,-2.17455 1.340831,-2.81258 m 8.554862,2.35231 1.645377,2.07671 h 1.233346 v -4.42902 h -1.462098 v 1.32154 c 0,0.24116 0.0069,0.49334 0.03858,0.7593 l -1.645377,-2.08084 h -1.233342 v 4.42902 h 1.462098 v -1.32981 c 0,-0.23427 -0.0069,-0.48094 -0.03859,-0.7469 m 5.855286,-2.35231 h -1.936143 v 4.42902 h 1.462098 v -1.15894 h 0.474045 c 1.125855,0 1.98713,-0.39136 1.98713,-1.63159 0,-1.24713 -0.861275,-1.63849 -1.98713,-1.63849 m -0.01242,1.20165 c 0.334864,0 0.54984,0.12678 0.54984,0.43684 0,0.30317 -0.214976,0.42994 -0.54984,0.42994 h -0.461641 v -0.86678 z m 0,0"
       id="path1239" />
  </g>
</svg>
