<?xml version="1.0" encoding="UTF-8" standalone="no"?>
<svg
   xmlns:dc="http://purl.org/dc/elements/1.1/"
   xmlns:cc="http://creativecommons.org/ns#"
   xmlns:rdf="http://www.w3.org/1999/02/22-rdf-syntax-ns#"
   xmlns:svg="http://www.w3.org/2000/svg"
   xmlns="http://www.w3.org/2000/svg"
   xmlns:sodipodi="http://sodipodi.sourceforge.net/DTD/sodipodi-0.dtd"
   xmlns:inkscape="http://www.inkscape.org/namespaces/inkscape"
   width="240.79297pt"
   height="106.05469pt"
   viewBox="0 0 240.79296 106.05469"
   version="1.2"
   id="svg69"
   sodipodi:docname="logoagh.pdf"
   inkscape:version="1.0.2 (e86c870879, 2021-01-15)">
  <metadata
     id="metadata75">
    <rdf:RDF>
      <cc:Work
         rdf:about="">
        <dc:format>image/svg+xml</dc:format>
        <dc:type
           rdf:resource="http://purl.org/dc/dcmitype/StillImage" />
        <dc:title></dc:title>
      </cc:Work>
    </rdf:RDF>
  </metadata>
  <defs
     id="defs73" />
  <sodipodi:namedview
     pagecolor="#ffffff"
     bordercolor="#666666"
     borderopacity="1"
     objecttolerance="10"
     gridtolerance="10"
     guidetolerance="10"
     inkscape:pageopacity="0"
     inkscape:pageshadow="2"
     inkscape:window-width="722"
     inkscape:window-height="480"
     id="namedview71"
     showgrid="false"
     fit-margin-top="0"
     fit-margin-left="0"
     fit-margin-right="0"
     fit-margin-bottom="0"
     inkscape:zoom="0.79196806"
     inkscape:cx="210.28751"
     inkscape:cy="106.96834"
     inkscape:window-x="4"
     inkscape:window-y="55"
     inkscape:window-maximized="0"
     inkscape:current-layer="svg69" />
  <g
     id="surface2329"
     transform="translate(-139.92187,-340.71875)">
    <path
       style="fill:#211e1e;fill-opacity:1;fill-rule:nonzero;stroke:none"
       d="m 185.3125,432.36328 c 0,-1.14844 -0.90234,-2.08203 -2.02734,-2.08203 h -3.20704 c 0.69922,0.62109 0.91016,1.125 0.91016,2.10547 v 14.01172 h 4.32422 V 439.625 h 4.92578 v 6.77344 h 4.31641 v -16.07032 h -4.31641 v 6.5625 h -4.92578 z m 0,0"
       id="path2" />
    <path
       style="fill:#211e1e;fill-opacity:1;fill-rule:nonzero;stroke:none"
       d="m 148.74219,439.89062 h -3.67969 l 1.81641,-5.5039 z m 2.20312,6.50782 h 4.58985 c 0,0 -5.07422,-14.26172 -5.07422,-14.26953 -0.57032,-1.59766 -1.80078,-1.84766 -2.19532,-1.84766 h -4.42968 c 0.67578,0.55469 0.91797,0.91406 0.91797,1.47266 0,0.33984 -0.082,0.60156 -0.44922,1.6914 l -4.38282,12.95313 h 2.99219 l 1.32813,-4.01563 h 5.34375 z m 0,0"
       id="path4" />
    <path
       style="fill:#211e1e;fill-opacity:1;fill-rule:nonzero;stroke:none"
       d="m 169.53516,444.11719 v -5.14453 c 0,-0.98438 -0.20704,-1.48438 -0.90625,-2.10938 l 3.30859,0.004 c 1.01562,0 1.89453,0.82812 1.89453,1.875 v 7.29687 c -1.61328,0.47266 -3.25,0.73438 -4.74609,0.73438 -5.73047,0 -9.3711,-3.34375 -9.3711,-8.28516 0,-4.82422 3.64844,-8.58594 9.44922,-8.58594 1.32031,0 2.57031,0.22657 3.70313,0.64063 v 3.22265 c -1.01563,-0.67187 -2.30078,-1.07031 -3.70313,-1.07031 -2.78125,0 -4.97265,1.91797 -4.97265,5.46094 0,3.75781 1.66015,6.05469 4.32421,6.05469 0.33204,0 0.66016,-0.0234 1.01954,-0.0937"
       id="path6" />
    <path
       style="fill:#b00f26;fill-opacity:1;fill-rule:nonzero;stroke:none"
       d="m 178.875,419.53516 c 3.58594,-2.46485 6.71875,-6.27344 6.72266,-14.33204 v -48.35937 h 3.57812 v 48.35937 c 0,8.95704 -4.48047,12.53907 -10.30078,14.33204"
       id="path8" />
    <path
       style="fill:#b00f26;fill-opacity:1;fill-rule:nonzero;stroke:none"
       d="m 181.78906,419.53516 c 3.35938,-1.56641 9.17969,-4.48047 9.17969,-14.33204 v -48.35937 h 3.58594 v 48.35937 c 0,12.09375 -9.40625,13.88282 -12.76563,14.33204"
       id="path10" />
    <path
       style="fill:#b00f26;fill-opacity:1;fill-rule:nonzero;stroke:none"
       d="m 176.63672,419.53516 c 2.67187,-2.69141 3.58203,-8.0625 3.58203,-15.22657 v -47.46484 h 3.58594 v 48.35937 c 0,8.03907 -2.6875,12.09375 -7.16797,14.33204"
       id="path12" />
    <path
       style="fill:#211e1e;fill-opacity:1;fill-rule:nonzero;stroke:none"
       d="m 159.17578,340.71875 c 3.58203,2.46484 6.71875,6.27344 6.71875,14.33203 v 55.52344 h 3.58594 v -55.52344 c 0,-8.95703 -4.48047,-12.53906 -10.30469,-14.33203"
       id="path14" />
    <path
       style="fill:#211e1e;fill-opacity:1;fill-rule:nonzero;stroke:none"
       d="m 162.08984,340.71875 c 3.35938,1.56641 9.17578,4.48047 9.17578,14.33203 v 55.52344 h 3.58204 v -55.52344 c 0,-12.08984 -9.39844,-13.88281 -12.75782,-14.33203"
       id="path16" />
    <path
       style="fill:#211e1e;fill-opacity:1;fill-rule:nonzero;stroke:none"
       d="m 156.93359,340.71875 c 2.67578,2.6875 3.58203,8.0625 3.58203,15.22656 v 54.62891 h 3.58985 v -55.52344 c 0,-8.03516 -2.69141,-12.08984 -7.17188,-14.33203"
       id="path18" />
    <path
       style="fill:#006b3a;fill-opacity:1;fill-rule:nonzero;stroke:none"
       d="m 156.48828,419.53516 c -3.57812,-2.46485 -6.71484,-6.27344 -6.71484,-14.33204 v -48.35937 h -3.58203 v 48.35937 c 0,8.95704 4.48046,12.53907 10.29687,14.33204"
       id="path20" />
    <path
       style="fill:#006b3a;fill-opacity:1;fill-rule:nonzero;stroke:none"
       d="m 153.57422,419.53516 c -3.35547,-1.56641 -9.17578,-4.48047 -9.17578,-14.33204 v -48.35937 h -3.58594 v 48.35937 c 0,12.09375 9.40625,13.88282 12.76172,14.33204"
       id="path22" />
    <path
       style="fill:#006b3a;fill-opacity:1;fill-rule:nonzero;stroke:none"
       d="m 158.72266,419.53516 c -2.66797,-2.69141 -3.57813,-8.0625 -3.57813,-15.22657 v -47.46484 h -3.58203 v 48.35937 c 0,8.03907 2.6875,12.09375 7.16016,14.33204"
       id="path24" />
    <path
       style="fill:#211e1e;fill-opacity:1;fill-rule:nonzero;stroke:none"
       d="m 224.26953,364.45312 c -0.0898,-0.45703 -0.1875,-0.93359 -0.28906,-1.42578 -0.0977,-0.48828 -0.19141,-0.94922 -0.27344,-1.3789 -0.0859,-0.42969 -0.15234,-0.78907 -0.20703,-1.08203 -0.0547,-0.28907 -0.0898,-0.46485 -0.10547,-0.52735 -0.10547,0.51953 -0.23047,1.15625 -0.36719,1.91016 -0.13672,0.75 -0.30468,1.58594 -0.5039,2.5039 l -0.85157,4.00391 h 3.44922 z m 2.04688,9.61719 -0.66797,-3.1289 h -4.50782 l -0.66406,3.1289 h -3.40625 l 4.32422,-16.10156 h 4.00391 l 4.32422,16.10156 z m 0,0"
       id="path26" />
    <path
       style="fill:#211e1e;fill-opacity:1;fill-rule:nonzero;stroke:none"
       d="m 242.37109,373.47266 c -0.30859,0.0898 -0.66797,0.18359 -1.08203,0.27343 -0.41406,0.0937 -0.85937,0.17969 -1.33203,0.26563 -0.47656,0.082 -0.96875,0.15234 -1.47266,0.20703 -0.50781,0.0547 -0.99609,0.082 -1.47265,0.082 -0.73438,0 -1.47266,-0.082 -2.20703,-0.24219 -0.73828,-0.16406 -1.39453,-0.51953 -1.98047,-1.07031 -0.58203,-0.55078 -1.05078,-1.35937 -1.41406,-2.42578 -0.35938,-1.06641 -0.53907,-2.50391 -0.53907,-4.31641 0,-1.1914 0.0977,-2.23437 0.29688,-3.125 0.19922,-0.89062 0.47265,-1.64843 0.82031,-2.27734 0.34375,-0.62891 0.74609,-1.14453 1.20703,-1.55469 0.45703,-0.40234 0.94922,-0.72265 1.46875,-0.95312 0.52344,-0.23047 1.0586,-0.38672 1.61328,-0.46875 0.55078,-0.0859 1.09375,-0.12891 1.63282,-0.12891 0.87109,0 1.6289,0.0898 2.26562,0.27734 0.63281,0.1836 1.13672,0.36719 1.50391,0.55079 v 2.57812 c -0.19922,-0.0625 -0.44532,-0.14453 -0.73438,-0.24219 -0.29297,-0.10156 -0.60547,-0.1875 -0.94531,-0.26562 -0.33594,-0.0781 -0.68359,-0.14453 -1.04688,-0.20703 -0.35937,-0.0625 -0.70703,-0.0937 -1.04296,-0.0937 -0.41407,0 -0.84375,0.0703 -1.28907,0.20703 -0.44531,0.14062 -0.85547,0.41406 -1.23047,0.82812 -0.375,0.41407 -0.6875,0.9961 -0.93359,1.73828 -0.24219,0.74219 -0.36719,1.71485 -0.36719,2.91016 0,1.26953 0.0977,2.28516 0.28907,3.03516 0.1914,0.75 0.42968,1.32812 0.71093,1.72656 0.28516,0.39844 0.59375,0.65234 0.9336,0.76953 0.33593,0.11328 0.65234,0.17188 0.9414,0.17188 0.16797,0 0.35938,-0.008 0.56641,-0.0234 0.20703,-0.0156 0.41406,-0.0352 0.62109,-0.0586 0.20703,-0.0234 0.39453,-0.043 0.57032,-0.0664 0.17968,-0.0234 0.32031,-0.0508 0.42968,-0.082 v -4.85157 h -2.1875 l -0.23047,-2.46093 h 5.63672 z m 0,0"
       id="path28" />
    <path
       style="fill:#211e1e;fill-opacity:1;fill-rule:nonzero;stroke:none"
       d="m 253.75781,374.07031 v -7.40625 h -4.60156 v 7.40625 h -3.21875 v -16.10156 h 3.21875 v 6.21094 h 4.60156 v -6.21094 h 3.21875 v 16.10156 z m 0,0"
       id="path30" />
    <path
       style="fill:#211e1e;fill-opacity:1;fill-rule:nonzero;stroke:none"
       d="m 277.92969,369.10156 c 0,0.82813 -0.0937,1.5625 -0.27735,2.20703 -0.18359,0.64453 -0.48437,1.1875 -0.89843,1.63282 -0.41407,0.44531 -0.95313,0.78125 -1.6211,1.01171 -0.66406,0.23047 -1.48047,0.34766 -2.44922,0.34766 -1.01172,0 -1.85547,-0.11328 -2.52734,-0.33594 -0.67578,-0.22265 -1.21094,-0.55078 -1.61328,-0.98828 -0.39844,-0.4375 -0.67969,-0.98047 -0.84766,-1.63281 -0.17187,-0.65234 -0.2539,-1.39844 -0.2539,-2.24219 v -11.13281 h 3.21875 v 11.03906 c 0,0.9961 0.15234,1.69922 0.44921,2.10547 0.29688,0.40625 0.82422,0.60938 1.57422,0.60938 0.69141,0 1.19922,-0.19922 1.53125,-0.59766 0.32813,-0.39844 0.49219,-1.10547 0.49219,-2.11719 v -11.03906 h 3.22266 z m 0,0"
       id="path32" />
    <path
       style="fill:#211e1e;fill-opacity:1;fill-rule:nonzero;stroke:none"
       d="m 289.38281,374.07031 -3.24219,-5.89062 c -0.35546,-0.65625 -0.66015,-1.28125 -0.92187,-1.875 -0.26172,-0.58985 -0.47656,-1.0586 -0.64453,-1.41407 0.0469,0.39844 0.12109,0.97657 0.21875,1.72657 0.10156,0.75 0.15234,1.63281 0.15234,2.64453 v 4.80859 h -3.22265 V 361.1875 h 3.3125 l 2.99218,5.3125 c 0.42578,0.75391 0.76172,1.41406 1,1.98047 0.23828,0.5664 0.45313,1.08203 0.65625,1.53906 -0.0469,-0.44141 -0.12109,-1.05859 -0.22265,-1.85156 -0.0977,-0.78906 -0.14844,-1.62891 -0.14844,-2.51563 v -4.46484 h 3.21875 v 12.88281 z m 0,0"
       id="path34" />
    <path
       style="fill:#211e1e;fill-opacity:1;fill-rule:nonzero;stroke:none"
       d="m 296.67578,361.1875 h 3.26563 v 12.88281 h -3.26563 z m 0,0"
       id="path36" />
    <path
       style="fill:#211e1e;fill-opacity:1;fill-rule:nonzero;stroke:none"
       d="m 309.96875,374.07031 h -4.41797 l -3.88672,-12.88281 h 3.56641 l 1.79297,7.63672 c 0.0937,0.38281 0.17578,0.77344 0.2539,1.17187 0.0781,0.40235 0.14844,0.77344 0.21875,1.11719 0.0703,0.34375 0.125,0.64453 0.17188,0.89453 0.0469,0.25391 0.0742,0.41406 0.0937,0.47266 0,-0.043 0.0195,-0.19141 0.0664,-0.4375 0.0469,-0.2461 0.10547,-0.53906 0.17188,-0.88281 0.0703,-0.34766 0.14844,-0.72266 0.23047,-1.12891 0.0859,-0.40625 0.17578,-0.80859 0.26562,-1.20703 l 1.79297,-7.63672 h 3.56641 z m 0,0"
       id="path38" />
    <path
       style="fill:#211e1e;fill-opacity:1;fill-rule:nonzero;stroke:none"
       d="m 324.32031,363.76562 h -5.63672 v 2.48047 h 4.83203 v 2.3711 h -4.83203 v 2.875 h 5.75 v 2.57812 h -8.96875 V 361.1875 h 9.08594 z m 0,0"
       id="path40" />
    <path
       style="fill:#211e1e;fill-opacity:1;fill-rule:nonzero;stroke:none"
       d="m 334.44141,365.14453 c 0,-0.58203 -0.22266,-0.98047 -0.66797,-1.19531 -0.44532,-0.21485 -1.17969,-0.32422 -2.20703,-0.32422 h -1.03516 v 3.42969 c 0.64062,0 1.21094,-0.0234 1.69922,-0.0703 0.49219,-0.0469 0.90234,-0.13671 1.23047,-0.27734 0.33203,-0.13672 0.57812,-0.32812 0.73828,-0.57422 0.16015,-0.24219 0.24219,-0.57422 0.24219,-0.98828 m -0.20704,8.92578 -0.78125,-2.73828 c -0.10937,-0.36719 -0.20312,-0.67187 -0.28906,-0.91016 -0.0859,-0.23437 -0.16797,-0.43359 -0.2539,-0.59765 -0.082,-0.16016 -0.17188,-0.29297 -0.26563,-0.40235 -0.0898,-0.10546 -0.18359,-0.22265 -0.27344,-0.34375 l -1.83984,0.11329 v 4.8789 h -3.22266 V 361.1875 h 4.41797 c 0.85938,0 1.65235,0.0469 2.37891,0.14062 0.73047,0.0899 1.35937,0.27344 1.88672,0.55079 0.52734,0.27734 0.9375,0.66406 1.23047,1.16015 0.29296,0.5 0.4375,1.14844 0.4375,1.94531 0,0.58204 -0.0625,1.07032 -0.1836,1.46094 -0.125,0.39063 -0.30078,0.71485 -0.52734,0.97656 -0.23438,0.26172 -0.50781,0.47266 -0.82813,0.63282 -0.32422,0.16015 -0.67578,0.30078 -1.05859,0.42578 0.58203,0.24609 1.06641,0.875 1.44531,1.88672 l 1.38281,3.70312 z m 0,0"
       id="path42" />
    <path
       style="fill:#211e1e;fill-opacity:1;fill-rule:nonzero;stroke:none"
       d="m 348.46875,370.16016 c 0,0.94921 -0.16406,1.69921 -0.49219,2.2539 -0.32812,0.55078 -0.75,0.96485 -1.26562,1.24219 -0.51172,0.27344 -1.08203,0.44922 -1.70313,0.52734 -0.61719,0.0781 -1.21484,0.11719 -1.78125,0.11719 -0.5664,0 -1.17187,-0.0547 -1.8164,-0.16406 -0.64454,-0.10547 -1.3125,-0.26563 -2,-0.48047 v -2.64453 c 0.67187,0.21094 1.34375,0.39062 2.01171,0.52734 0.66407,0.13672 1.19141,0.20703 1.57422,0.20703 0.70703,0 1.25782,-0.0898 1.65625,-0.26562 0.39844,-0.17578 0.59766,-0.53906 0.59766,-1.09375 0,-0.44141 -0.15234,-0.76563 -0.46094,-0.96485 -0.30469,-0.19921 -0.67969,-0.38281 -1.125,-0.55078 l -1.17187,-0.46093 c -0.3711,-0.13672 -0.73438,-0.3086 -1.09375,-0.50391 -0.35938,-0.19922 -0.67969,-0.4375 -0.95313,-0.71484 -0.27734,-0.27735 -0.5039,-0.60547 -0.67969,-0.98829 -0.17578,-0.38281 -0.26562,-0.84375 -0.26562,-1.3789 0,-0.82813 0.15234,-1.4961 0.44922,-2.00391 0.29687,-0.5039 0.6914,-0.89453 1.17187,-1.17187 0.48438,-0.27735 1.01953,-0.46094 1.61328,-0.55078 0.58985,-0.0937 1.1836,-0.14063 1.78125,-0.14063 0.67579,0 1.3086,0.0586 1.90625,0.17578 0.60157,0.11328 1.12891,0.27735 1.58985,0.49219 v 2.50781 c -0.58594,-0.21484 -1.16016,-0.38672 -1.73828,-0.51562 -0.57422,-0.13282 -1.08203,-0.19922 -1.52735,-0.19922 -0.6914,0 -1.21093,0.0859 -1.55468,0.2539 -0.34375,0.16797 -0.51563,0.46875 -0.51563,0.89844 0,0.41406 0.16016,0.71875 0.48438,0.91797 0.32031,0.19922 0.72656,0.39063 1.21484,0.57813 l 1.12891,0.43359 c 0.36718,0.14062 0.73437,0.30469 1.09375,0.49609 0.35937,0.19141 0.67578,0.42578 0.95312,0.70313 0.27734,0.27344 0.49609,0.60937 0.66797,1.01172 0.16797,0.39843 0.25,0.8789 0.25,1.44922"
       id="path44" />
    <path
       style="fill:#211e1e;fill-opacity:1;fill-rule:nonzero;stroke:none"
       d="m 351.57422,361.1875 h 3.26953 v 12.88281 h -3.26953 z m 0,0"
       id="path46" />
    <path
       style="fill:#211e1e;fill-opacity:1;fill-rule:nonzero;stroke:none"
       d="m 367.81641,363.83203 h -3.54297 v 10.23438 h -3.22266 v -10.23438 h -3.91016 v -2.64453 h 11.03907 z m 0,0"
       id="path48" />
    <path
       style="fill:#211e1e;fill-opacity:1;fill-rule:nonzero;stroke:none"
       d="m 376.23047,369.16797 v 4.89844 h -3.21875 v -4.89844 l -4.48438,-7.98047 h 3.65625 l 2.4375,5.47656 2.4375,-5.47656 h 3.65625 z m 0,0"
       id="path50" />
    <path
       style="fill:#211e1e;fill-opacity:1;fill-rule:nonzero;stroke:none"
       d="m 226.5,395.22656 c 0,-0.8125 -0.0586,-1.5 -0.17188,-2.0664 -0.11328,-0.57032 -0.28125,-1.02344 -0.49218,-1.3711 -0.21875,-0.34375 -0.48047,-0.59375 -0.79688,-0.74609 -0.3125,-0.15235 -0.67187,-0.23047 -1.0664,-0.23047 -0.40235,0 -0.75782,0.0781 -1.07032,0.23047 -0.3164,0.15234 -0.58203,0.40625 -0.79297,0.75781 -0.21484,0.35547 -0.3789,0.80859 -0.49609,1.36719 -0.11328,0.5625 -0.17187,1.24609 -0.17187,2.05859 0,1.55078 0.21875,2.66406 0.65625,3.33594 0.43359,0.67578 1.05859,1.01172 1.875,1.01172 0.80859,0 1.43359,-0.32813 1.87109,-0.98828 0.4375,-0.66016 0.65625,-1.77735 0.65625,-3.35938 m 3.22266,0 c 0,1.44141 -0.1875,2.60156 -0.55469,3.47656 -0.36719,0.8711 -0.83594,1.54688 -1.40235,2.02344 -0.5664,0.47266 -1.1875,0.78906 -1.86328,0.94141 -0.67578,0.15234 -1.3164,0.23047 -1.92968,0.23047 -0.62891,0 -1.28125,-0.0781 -1.95704,-0.23047 -0.67578,-0.15235 -1.29687,-0.46875 -1.86328,-0.94141 -0.5664,-0.47656 -1.03125,-1.15234 -1.39062,-2.02344 -0.35938,-0.875 -0.53906,-2.03515 -0.53906,-3.47656 0,-1.4375 0.18359,-2.59765 0.55078,-3.47265 0.36718,-0.8711 0.83203,-1.54688 1.39062,-2.02344 0.5586,-0.47266 1.17578,-0.78906 1.85156,-0.94141 0.67579,-0.15234 1.32813,-0.23047 1.95704,-0.23047 0.61328,0 1.2539,0.0781 1.92968,0.23047 0.67578,0.15235 1.29688,0.46875 1.86328,0.94141 0.56641,0.47656 1.03516,1.15234 1.40235,2.02344 0.36719,0.875 0.55469,2.03515 0.55469,3.47265"
       id="path52" />
    <path
       style="fill:#211e1e;fill-opacity:1;fill-rule:nonzero;stroke:none"
       d="m 241.49609,391.43359 h -5.44922 v 2.64453 h 4.82813 v 2.3711 h -4.82813 v 5.21875 h -3.22265 v -12.87891 h 8.97265 z m 0,0"
       id="path54" />
    <path
       style="fill:#211e1e;fill-opacity:1;fill-rule:nonzero;stroke:none"
       d="m 258.46875,401.89844 -4,-8.96875 3.70312,-7.35938 h 3.63282 l -4.14063,7.21875 4.3711,8.87891 z m -7.47266,-16.32813 h 3.21875 v 16.09766 h -3.21875 z m 0,0"
       id="path56" />
    <path
       style="fill:#211e1e;fill-opacity:1;fill-rule:nonzero;stroke:none"
       d="m 271.35156,392.74609 c 0,-0.58593 -0.22265,-0.98437 -0.66797,-1.19922 -0.44531,-0.21484 -1.17968,-0.32031 -2.20703,-0.32031 h -1.03515 v 3.42578 c 0.64453,0 1.21093,-0.0234 1.70312,-0.0664 0.48828,-0.0469 0.89844,-0.14063 1.22656,-0.27735 0.33203,-0.13672 0.57813,-0.33203 0.73828,-0.57422 0.16016,-0.24609 0.24219,-0.57421 0.24219,-0.98828 m -0.20703,8.92188 -0.78125,-2.73828 c -0.10937,-0.36719 -0.20312,-0.66797 -0.28906,-0.90625 -0.0859,-0.23828 -0.16797,-0.4375 -0.25391,-0.59766 -0.082,-0.16016 -0.17187,-0.29687 -0.26562,-0.40234 -0.0899,-0.10938 -0.1836,-0.22266 -0.27344,-0.34766 l -1.83984,0.11719 v 4.875 h -3.22266 v -12.87891 h 4.41797 c 0.85937,0 1.65234,0.0469 2.3789,0.13672 0.73047,0.0898 1.35938,0.27734 1.88672,0.55078 0.52735,0.27735 0.9375,0.66406 1.23047,1.16406 0.29297,0.4961 0.4375,1.14454 0.4375,1.94141 0,0.58594 -0.0625,1.07031 -0.18359,1.46094 -0.125,0.39062 -0.30078,0.71875 -0.52735,0.97656 -0.23437,0.26172 -0.50781,0.47266 -0.82812,0.63281 -0.32422,0.16407 -0.67578,0.30469 -1.05859,0.42578 0.58203,0.2461 1.0664,0.875 1.44531,1.88672 l 1.38281,3.70313 z m 0,0"
       id="path58" />
    <path
       style="fill:#211e1e;fill-opacity:1;fill-rule:nonzero;stroke:none"
       d="m 283.14844,393.66406 c -0.26172,-0.91797 -0.45313,-1.6289 -0.57422,-2.1289 -0.1211,-0.4961 -0.22266,-0.88282 -0.30078,-1.16016 -0.0899,0.35156 -0.21875,0.82812 -0.37891,1.42578 -0.16016,0.59766 -0.32422,1.21875 -0.49219,1.86328 l -0.85156,3.08203 H 284 Z m 2.04687,8.00391 -0.73437,-2.55078 h -4.3711 l -0.73828,2.55078 h -3.40234 l 4.25781,-12.87891 h 4.13672 l 4.25391,12.87891 z m 0,0"
       id="path60" />
    <path
       style="fill:#211e1e;fill-opacity:1;fill-rule:nonzero;stroke:none"
       d="m 298.375,401.89844 -4.00391,-7.01563 3.63672,-6.09375 h 3.70313 l -4.09766,5.98047 4.32422,6.89844 z m -7.47656,-13.10938 h 3.21875 v 12.87891 h -3.21875 z m 0,0"
       id="path62" />
    <path
       style="fill:#211e1e;fill-opacity:1;fill-rule:nonzero;stroke:none"
       d="m 311.02344,395.22656 c 0,-0.8125 -0.0586,-1.5 -0.17188,-2.0664 -0.11328,-0.57032 -0.27734,-1.02344 -0.49609,-1.3711 -0.21485,-0.34375 -0.47656,-0.59375 -0.79297,-0.74609 -0.3125,-0.15235 -0.66797,-0.23047 -1.06641,-0.23047 -0.40234,0 -0.75781,0.0781 -1.07031,0.23047 -0.31641,0.15234 -0.57812,0.40625 -0.79297,0.75781 -0.21484,0.35547 -0.3789,0.80859 -0.49609,1.36719 -0.11328,0.5625 -0.17188,1.24609 -0.17188,2.05859 0,1.55078 0.21875,2.66406 0.65625,3.33594 0.4375,0.67578 1.0586,1.01172 1.875,1.01172 0.8125,0 1.4375,-0.32813 1.875,-0.98828 0.4336,-0.66016 0.65235,-1.77735 0.65235,-3.35938 m 3.22265,0 c 0,1.44141 -0.1875,2.60156 -0.55468,3.47656 -0.36719,0.8711 -0.83594,1.54688 -1.40235,2.02344 -0.5664,0.47266 -1.1875,0.78906 -1.86328,0.94141 -0.67187,0.15234 -1.32031,0.23047 -1.92969,0.23047 -0.6289,0 -1.28125,-0.0781 -1.95703,-0.23047 -0.67187,-0.15235 -1.29297,-0.46875 -1.86328,-0.94141 -0.56641,-0.47656 -1.03125,-1.15234 -1.39062,-2.02344 -0.35938,-0.875 -0.53907,-2.03515 -0.53907,-3.47656 0,-1.4375 0.1836,-2.59765 0.55078,-3.47265 0.36719,-0.8711 0.83204,-1.54688 1.39063,-2.02344 0.5625,-0.47266 1.17969,-0.78906 1.85156,-0.94141 0.67578,-0.15234 1.32813,-0.23047 1.95703,-0.23047 0.60938,0 1.25782,0.0781 1.92969,0.23047 0.67578,0.15235 1.29688,0.46875 1.86328,0.94141 0.56641,0.47656 1.03516,1.15234 1.40235,2.02344 0.36718,0.875 0.55468,2.03515 0.55468,3.47265"
       id="path64" />
    <path
       style="fill:#211e1e;fill-opacity:1;fill-rule:nonzero;stroke:none"
       d="m 331.47266,401.66797 h -4.3711 l -1.26562,-6.21094 c -0.0781,-0.38281 -0.16797,-0.85156 -0.27344,-1.41406 -0.10938,-0.5586 -0.21875,-1.10938 -0.32422,-1.65625 -0.10547,-0.54297 -0.19922,-1.02735 -0.27734,-1.44922 -0.0742,-0.42188 -0.1211,-0.67578 -0.13672,-0.76953 -0.0156,0.0937 -0.0586,0.34375 -0.13672,0.75781 -0.0781,0.41406 -0.16406,0.89453 -0.26563,1.4375 -0.0976,0.54688 -0.20312,1.10156 -0.30859,1.66797 -0.10937,0.57031 -0.20312,1.04297 -0.27734,1.42578 l -1.28907,6.21094 h -4.37109 l -2.66797,-12.87891 h 3.63672 l 0.73438,6.4375 c 0.0469,0.49219 0.0976,1.00781 0.15234,1.55469 0.0508,0.54297 0.10156,1.05469 0.14844,1.52734 0.0469,0.47657 0.082,0.88282 0.11328,1.22266 0.0312,0.24219 0.0547,0.41016 0.0703,0.50391 l 0.0703,-0.48438 c 0.0586,-0.32031 0.12891,-0.71484 0.20703,-1.18359 0.0742,-0.46875 0.16797,-0.98047 0.27344,-1.53907 0.10938,-0.5625 0.21485,-1.09375 0.32422,-1.60156 l 1.33203,-6.4375 h 4.50781 l 1.37891,6.4375 c 0.0937,0.42969 0.19141,0.91406 0.28906,1.44922 0.0977,0.53906 0.19141,1.04688 0.27735,1.53125 0.082,0.48047 0.15234,0.89844 0.20703,1.25391 0.0547,0.35156 0.0859,0.5664 0.10156,0.64453 0.0781,-0.72266 0.16016,-1.4961 0.24219,-2.32422 0.0859,-0.82813 0.17187,-1.67969 0.26562,-2.55469 l 0.66407,-6.4375 h 3.63671 z m 0,0"
       id="path66" />
  </g>
</svg>
