<?xml version="1.0" encoding="UTF-8" standalone="no"?>
<svg
   xmlns:dc="http://purl.org/dc/elements/1.1/"
   xmlns:cc="http://creativecommons.org/ns#"
   xmlns:rdf="http://www.w3.org/1999/02/22-rdf-syntax-ns#"
   xmlns:svg="http://www.w3.org/2000/svg"
   xmlns="http://www.w3.org/2000/svg"
   xmlns:sodipodi="http://sodipodi.sourceforge.net/DTD/sodipodi-0.dtd"
   xmlns:inkscape="http://www.inkscape.org/namespaces/inkscape"
   width="52.554256mm"
   height="12.000095mm"
   viewBox="0 0 52.554256 12.000095"
   version="1.1"
   id="svg4407"
   inkscape:version="1.0.2 (e86c870879, 2021-01-15)">
  <defs
     id="defs4401">
    <clipPath
       id="clip13">
      <path
         d="m 495,318 h 5 v 6.56641 h -5 z m 0,0"
         id="path307" />
    </clipPath>
    <clipPath
       id="clip14">
      <path
         d="M 450.40234,292 H 457 v 10 h -6.59766 z m 0,0"
         id="path310" />
    </clipPath>
    <clipPath
       id="clip11">
      <path
         d="M 113.38672,303 H 125 v 18 h -11.61328 z m 0,0"
         id="path301" />
    </clipPath>
    <clipPath
       id="clip12">
      <path
         d="m 194,293 h 5.47656 v 8 H 194 Z m 0,0"
         id="path304" />
    </clipPath>
  </defs>
  <sodipodi:namedview
     id="base"
     pagecolor="#ffffff"
     bordercolor="#666666"
     borderopacity="1.0"
     inkscape:pageopacity="0.0"
     inkscape:pageshadow="2"
     inkscape:zoom="0.7"
     inkscape:cx="276.56177"
     inkscape:cy="-133.49824"
     inkscape:document-units="mm"
     inkscape:current-layer="layer1"
     inkscape:document-rotation="0"
     showgrid="false"
     fit-margin-top="0"
     fit-margin-left="0"
     fit-margin-right="0"
     fit-margin-bottom="0"
     inkscape:window-width="1421"
     inkscape:window-height="1021"
     inkscape:window-x="495"
     inkscape:window-y="55"
     inkscape:window-maximized="0" />
  <metadata
     id="metadata4404">
    <rdf:RDF>
      <cc:Work
         rdf:about="">
        <dc:format>image/svg+xml</dc:format>
        <dc:type
           rdf:resource="http://purl.org/dc/dcmitype/StillImage" />
        <dc:title></dc:title>
      </cc:Work>
    </rdf:RDF>
  </metadata>
  <g
     inkscape:label="Layer 1"
     inkscape:groupmode="layer"
     id="layer1"
     transform="translate(-32.659699,-183.48808)">
    <g
       style="fill:#211e1e;fill-opacity:1"
       id="g335"
       transform="matrix(0.3527778,0,0,0.3527778,-55.694602,80.987791)">
      <g
         id="use333"
         transform="matrix(0.26458333,0,0,0.26458333,113.3858,31.677601)">
        <path
           style="stroke:none"
           d=""
           id="path5248" />
      </g>
    </g>
    <g
       style="fill:#211e1e;fill-opacity:1"
       id="g351"
       transform="matrix(0.3527778,0,0,0.3527778,-55.694602,80.987791)">
      <g
         id="use349"
         transform="matrix(0.26458333,0,0,0.26458333,139.59351,31.677601)">
        <path
           style="stroke:none"
           d=""
           id="path5244" />
      </g>
    </g>
    <g
       id="g4195"
       transform="matrix(0.3527778,0,0,0.3527778,-55.694602,80.987791)">
      <path
         style="fill:#1c5cb3;fill-opacity:1;fill-rule:nonzero;stroke:none"
         d="m 318.26562,302.72266 c 0,-9.60938 -14.89062,-15.01563 -38.35937,-10.625 v 0.97656 c 22.55469,-2.0586 33.36328,3.69531 33.36328,12.0625 0,2.98437 -0.87109,4.76172 -2.67578,6.97656 h 1.39453 c 3.18359,-1.69922 6.27734,-4.95703 6.27734,-9.39062 m -45.02734,1.85546 h 5.16797 v -3.62109 h -9.30859 v 12.55469 h 4.14062 v -3.53125 h 5.10156 v -3.51563 h -5.10156 z m -12.51172,-3.62109 h -1.39453 c -5.5,2.92969 -8.87891,6.86719 -8.87891,11.86719 0,10.92578 18.8086,14.29687 38.51954,9.82422 v -0.97657 c -18.95704,1.35547 -32.04688,-3.73828 -32.04688,-12.74218 0,-3.52735 1.87891,-6.16407 3.80078,-7.97266 m 24.25,6.66797 4.66406,5.88672 h 3.4961 v -12.55469 h -4.14453 v 3.74609 c 0,0.6836 0.0195,1.39844 0.10937,2.15235 l -4.66406,-5.89844 h -3.49609 v 12.55469 h 4.14453 v -3.76953 c 0,-0.66407 -0.0195,-1.36328 -0.10938,-2.11719 m 16.59766,-6.66797 h -5.48828 v 12.55469 h 4.14453 v -3.28516 h 1.34375 c 3.1914,0 5.63281,-1.10937 5.63281,-4.625 0,-3.53515 -2.44141,-4.64453 -5.63281,-4.64453 m -0.0352,3.40625 c 0.94922,0 1.5586,0.35938 1.5586,1.23828 0,0.85938 -0.60938,1.21875 -1.5586,1.21875 h -1.30859 v -2.45703 z m 0,0"
         id="path1239" />
      <path
         style="fill:#1c5cb3;fill-opacity:1;fill-rule:nonzero;stroke:none"
         d="m 328.54297,300.98437 h 4.60547 v 1.39063 h -2.95703 v 1.69141 h 2.53125 v 1.39062 h -2.53125 v 2.83594 h -1.64844 z m 0,0"
         id="path1241" />
      <path
         style="fill:#1c5cb3;fill-opacity:1;fill-rule:nonzero;stroke:none"
         d="m 335.44531,305.51172 c 0,0.48828 0.0859,0.87109 0.25391,1.15625 0.16797,0.28125 0.42187,0.42578 0.76953,0.42578 0.33594,0 0.58984,-0.14453 0.76172,-0.42578 0.16797,-0.28516 0.2539,-0.66797 0.2539,-1.15625 0,-0.48438 -0.0859,-0.86719 -0.2539,-1.15235 -0.17188,-0.28515 -0.42578,-0.42578 -0.76172,-0.42578 -0.34766,0 -0.60156,0.14063 -0.76953,0.42578 -0.16797,0.28516 -0.25391,0.66797 -0.25391,1.15235 m -1.6914,0 c 0,-0.46094 0.0742,-0.875 0.22656,-1.23828 0.14844,-0.35938 0.34765,-0.66407 0.59765,-0.91016 0.25,-0.25 0.53907,-0.4375 0.86719,-0.56641 0.33203,-0.13281 0.66797,-0.19921 1.02344,-0.19921 0.34766,0 0.6875,0.0664 1.01172,0.19921 0.32422,0.12891 0.61328,0.31641 0.86328,0.56641 0.25,0.24609 0.44922,0.55078 0.59766,0.91016 0.15234,0.36328 0.22656,0.77734 0.22656,1.23828 0,0.46484 -0.0742,0.875 -0.22656,1.23828 -0.14844,0.36328 -0.34766,0.66797 -0.59766,0.91406 -0.25,0.2461 -0.53906,0.4336 -0.86328,0.56641 -0.32422,0.1289 -0.66406,0.19531 -1.01172,0.19531 -0.35547,0 -0.69141,-0.0664 -1.02344,-0.19531 -0.32812,-0.13281 -0.61719,-0.32031 -0.86719,-0.56641 -0.25,-0.24609 -0.44921,-0.55078 -0.59765,-0.91406 -0.15235,-0.36328 -0.22656,-0.77344 -0.22656,-1.23828"
         id="path1243" />
      <path
         style="fill:#1c5cb3;fill-opacity:1;fill-rule:nonzero;stroke:none"
         d="m 340.03906,302.73437 h 1.64844 v 3.23829 c 0,0.40234 0.0547,0.67968 0.16797,0.82812 0.11328,0.14844 0.28906,0.22656 0.52734,0.22656 0.21094,0 0.38672,-0.0508 0.52735,-0.14843 0.14062,-0.0977 0.29296,-0.25391 0.45703,-0.46875 v -3.67579 h 1.64843 v 5.5586 h -1.34375 l -0.125,-0.77344 h -0.0312 c -0.24218,0.28516 -0.49609,0.50391 -0.76953,0.66406 -0.27343,0.16407 -0.59765,0.24219 -0.98047,0.24219 -0.60546,0 -1.04296,-0.19922 -1.3164,-0.59375 -0.27344,-0.39453 -0.41016,-0.94531 -0.41016,-1.64844 z m 0,0"
         id="path1245" />
      <path
         style="fill:#1c5cb3;fill-opacity:1;fill-rule:nonzero;stroke:none"
         d="m 346.26172,302.73437 h 1.34375 l 0.11328,0.70704 h 0.043 c 0.23828,-0.22657 0.5,-0.42188 0.78515,-0.58985 0.28516,-0.16797 0.61329,-0.25 0.9961,-0.25 0.60547,0 1.04297,0.19531 1.3164,0.58985 0.27344,0.39843 0.41016,0.94921 0.41016,1.64843 v 3.45313 h -1.64844 v -3.23828 c 0,-0.40625 -0.0547,-0.67969 -0.16015,-0.83203 C 349.35156,304.07422 349.17578,304 348.9375,304 c -0.20703,0 -0.38672,0.0469 -0.53906,0.14062 -0.14844,0.0937 -0.3125,0.22657 -0.49219,0.39844 v 3.75391 h -1.64453 z m 0,0"
         id="path1247" />
      <path
         style="fill:#1c5cb3;fill-opacity:1;fill-rule:nonzero;stroke:none"
         d="m 353.86719,305.49219 c 0,0.55078 0.0898,0.95312 0.26562,1.20703 0.17578,0.2539 0.42188,0.38281 0.74219,0.38281 0.17969,0 0.34375,-0.0391 0.48828,-0.11328 0.14453,-0.0742 0.28516,-0.20313 0.42188,-0.39063 v -2.27734 c -0.14844,-0.13281 -0.30469,-0.22656 -0.46094,-0.27734 -0.15625,-0.0547 -0.3086,-0.0781 -0.45703,-0.0781 -0.26172,0 -0.4961,0.125 -0.69532,0.375 -0.20312,0.25 -0.30468,0.64063 -0.30468,1.17188 m -1.69141,0.0195 c 0,-0.45313 0.0664,-0.86328 0.19531,-1.21875 0.13282,-0.35938 0.30469,-0.66406 0.51563,-0.91406 0.21484,-0.25 0.46094,-0.44532 0.74219,-0.57813 0.27734,-0.13281 0.5625,-0.20312 0.85546,-0.20312 0.3125,0 0.57032,0.0547 0.77344,0.16015 0.20313,0.10156 0.39844,0.2461 0.59375,0.42578 l -0.0664,-0.85156 v -1.89453 h 1.64453 v 7.85547 h -1.34375 l -0.11328,-0.55078 h -0.043 c -0.19532,0.19531 -0.42188,0.35547 -0.6836,0.48828 -0.26172,0.1289 -0.52734,0.19531 -0.79297,0.19531 -0.34765,0 -0.65625,-0.0664 -0.9375,-0.20312 -0.28125,-0.13282 -0.51953,-0.32422 -0.71875,-0.57422 -0.19531,-0.25 -0.34765,-0.55469 -0.45703,-0.91407 -0.10937,-0.35937 -0.16406,-0.76562 -0.16406,-1.22265"
         id="path1249" />
      <path
         style="fill:#1c5cb3;fill-opacity:1;fill-rule:nonzero;stroke:none"
         d="m 360.05469,306.62109 c 0,0.17969 0.0586,0.3125 0.17187,0.39844 0.11719,0.0859 0.26953,0.12891 0.46485,0.12891 0.19531,0 0.35937,-0.0391 0.49218,-0.125 0.13672,-0.082 0.27735,-0.19532 0.42969,-0.34375 v -0.97657 c -0.58984,0.082 -1,0.20313 -1.22266,0.35938 -0.22656,0.15625 -0.33593,0.34375 -0.33593,0.55859 m -1.57032,0.125 c 0,-0.58203 0.2461,-1.03906 0.73829,-1.36718 0.49609,-0.32813 1.28906,-0.55079 2.39062,-0.66016 -0.0156,-0.24609 -0.0898,-0.44531 -0.22656,-0.58984 -0.13281,-0.14454 -0.35156,-0.21875 -0.64844,-0.21875 -0.24219,0 -0.48047,0.043 -0.71875,0.13671 -0.23828,0.0859 -0.49219,0.21094 -0.76172,0.36719 l -0.58203,-1.08594 c 0.35938,-0.21875 0.73438,-0.39453 1.125,-0.52734 0.39453,-0.13281 0.80859,-0.20312 1.25,-0.20312 0.71484,0 1.26563,0.20703 1.64063,0.61328 0.3789,0.40625 0.5664,1.03906 0.5664,1.89843 v 3.1836 h -1.34375 l -0.125,-0.57422 h -0.0312 c -0.24219,0.21094 -0.49219,0.37891 -0.75781,0.51172 -0.26563,0.1289 -0.55469,0.19531 -0.86719,0.19531 -0.2539,0 -0.48047,-0.043 -0.68359,-0.12891 -0.20313,-0.0859 -0.375,-0.20312 -0.51563,-0.35937 -0.14453,-0.15234 -0.2539,-0.32813 -0.33203,-0.53125 -0.0781,-0.20313 -0.11719,-0.42188 -0.11719,-0.66016"
         id="path1251" />
      <path
         style="fill:#1c5cb3;fill-opacity:1;fill-rule:nonzero;stroke:none"
         d="m 364.69141,304.02344 h -0.76172 v -1.22266 l 0.85156,-0.0664 0.19141,-1.48046 h 1.36718 v 1.48046 h 1.33203 v 1.28907 h -1.33203 v 2.23047 c 0,0.3125 0.0664,0.53906 0.19532,0.67578 0.13281,0.14062 0.30468,0.20703 0.51953,0.20703 0.0898,0 0.18359,-0.0117 0.27734,-0.0352 0.0937,-0.0195 0.17578,-0.0469 0.25,-0.0742 l 0.25781,1.19532 c -0.14843,0.0469 -0.32422,0.0898 -0.52734,0.13671 -0.19922,0.043 -0.43359,0.0664 -0.70313,0.0664 -0.34375,0 -0.63671,-0.0508 -0.88281,-0.15625 -0.23828,-0.10547 -0.4375,-0.25 -0.59375,-0.4375 -0.15234,-0.1875 -0.26172,-0.41406 -0.33594,-0.67578 -0.0703,-0.26563 -0.10546,-0.55859 -0.10546,-0.88281 z m 0,0"
         id="path1253" />
      <path
         style="fill:#1c5cb3;fill-opacity:1;fill-rule:nonzero;stroke:none"
         d="m 368.55859,302.73437 h 1.64844 v 5.5586 h -1.64844 z m 0.81641,-0.82031 c -0.27344,0 -0.50391,-0.0781 -0.68359,-0.23828 -0.17579,-0.16016 -0.26563,-0.36719 -0.26563,-0.62109 0,-0.25391 0.0898,-0.46094 0.26563,-0.61719 0.17968,-0.15625 0.41015,-0.23828 0.68359,-0.23828 0.28516,0 0.51562,0.082 0.69141,0.23828 0.17578,0.15625 0.26171,0.36328 0.26171,0.61719 0,0.2539 -0.0859,0.46093 -0.26171,0.62109 -0.17579,0.16016 -0.40625,0.23828 -0.69141,0.23828"
         id="path1255" />
      <path
         style="fill:#1c5cb3;fill-opacity:1;fill-rule:nonzero;stroke:none"
         d="m 372.81641,305.51172 c 0,0.48828 0.082,0.87109 0.25,1.15625 0.16796,0.28125 0.42578,0.42578 0.76953,0.42578 0.33593,0 0.58984,-0.14453 0.76172,-0.42578 0.17187,-0.28516 0.25781,-0.66797 0.25781,-1.15625 0,-0.48438 -0.0859,-0.86719 -0.25781,-1.15235 -0.17188,-0.28515 -0.42579,-0.42578 -0.76172,-0.42578 -0.34375,0 -0.60157,0.14063 -0.76953,0.42578 -0.16797,0.28516 -0.25,0.66797 -0.25,1.15235 m -1.69141,0 c 0,-0.46094 0.0742,-0.875 0.22266,-1.23828 0.14843,-0.35938 0.34765,-0.66407 0.60156,-0.91016 0.25,-0.25 0.53906,-0.4375 0.86719,-0.56641 0.32812,-0.13281 0.66796,-0.19921 1.01953,-0.19921 0.35156,0 0.6875,0.0664 1.01562,0.19921 0.32422,0.12891 0.60938,0.31641 0.86328,0.56641 0.25,0.24609 0.44532,0.55078 0.59766,0.91016 0.14844,0.36328 0.22266,0.77734 0.22266,1.23828 0,0.46484 -0.0742,0.875 -0.22266,1.23828 -0.15234,0.36328 -0.34766,0.66797 -0.59766,0.91406 -0.2539,0.2461 -0.53906,0.4336 -0.86328,0.56641 -0.32812,0.1289 -0.66406,0.19531 -1.01562,0.19531 -0.35157,0 -0.69141,-0.0664 -1.01953,-0.19531 -0.32813,-0.13281 -0.61719,-0.32031 -0.86719,-0.56641 -0.25391,-0.24609 -0.45313,-0.55078 -0.60156,-0.91406 -0.14844,-0.36328 -0.22266,-0.77344 -0.22266,-1.23828"
         id="path1257" />
      <path
         style="fill:#1c5cb3;fill-opacity:1;fill-rule:nonzero;stroke:none"
         d="m 377.46484,302.73437 h 1.34766 l 0.10937,0.70704 h 0.0469 c 0.23828,-0.22657 0.5,-0.42188 0.78516,-0.58985 0.28125,-0.16797 0.61328,-0.25 0.99609,-0.25 0.60547,0 1.04297,0.19531 1.31641,0.58985 0.27343,0.39843 0.41015,0.94921 0.41015,1.64843 v 3.45313 h -1.64844 v -3.23828 c 0,-0.40625 -0.0547,-0.67969 -0.16406,-0.83203 C 380.55859,304.07422 380.38281,304 380.14453,304 c -0.21094,0 -0.39062,0.0469 -0.53906,0.14062 -0.14844,0.0937 -0.3125,0.22657 -0.49219,0.39844 v 3.75391 h -1.64844 z m 0,0"
         id="path1259" />
      <path
         style="fill:#1c5cb3;fill-opacity:1;fill-rule:nonzero;stroke:none"
         d="m 389.18359,301.71484 c -0.20703,-0.0742 -0.39843,-0.11328 -0.57031,-0.11328 -0.20312,0 -0.35937,0.0625 -0.47266,0.1836 -0.10937,0.125 -0.16796,0.32812 -0.16796,0.61328 v 0.33593 h 1 v 1.28907 h -1 v 4.26953 h -1.64454 v -4.26953 h -0.74218 v -1.22266 l 0.74218,-0.0547 v -0.30468 c 0,-0.28907 0.0352,-0.56641 0.10547,-0.82813 0.0703,-0.26172 0.1875,-0.48828 0.35157,-0.68359 0.16406,-0.19532 0.3789,-0.34766 0.64062,-0.46094 0.26172,-0.10938 0.57813,-0.16797 0.94922,-0.16797 0.23437,0 0.44531,0.0234 0.63672,0.0664 0.1875,0.0469 0.34765,0.0937 0.47656,0.13672 z m 0,0"
         id="path1261" />
      <path
         style="fill:#1c5cb3;fill-opacity:1;fill-rule:nonzero;stroke:none"
         d="m 391.03125,305.51172 c 0,0.48828 0.0859,0.87109 0.25391,1.15625 0.16796,0.28125 0.42187,0.42578 0.76562,0.42578 0.33594,0 0.58984,-0.14453 0.76172,-0.42578 0.17578,-0.28516 0.25781,-0.66797 0.25781,-1.15625 0,-0.48438 -0.082,-0.86719 -0.25781,-1.15235 -0.17188,-0.28515 -0.42578,-0.42578 -0.76172,-0.42578 -0.34375,0 -0.59766,0.14063 -0.76562,0.42578 -0.16797,0.28516 -0.25391,0.66797 -0.25391,1.15235 m -1.69141,0 c 0,-0.46094 0.0742,-0.875 0.22266,-1.23828 0.15234,-0.35938 0.35156,-0.66407 0.60156,-0.91016 0.25,-0.25 0.53906,-0.4375 0.86719,-0.56641 0.33203,-0.13281 0.66797,-0.19921 1.01953,-0.19921 0.35156,0 0.69141,0.0664 1.01563,0.19921 0.32421,0.12891 0.61328,0.31641 0.86328,0.56641 0.25,0.24609 0.44922,0.55078 0.59765,0.91016 0.15235,0.36328 0.22657,0.77734 0.22657,1.23828 0,0.46484 -0.0742,0.875 -0.22657,1.23828 -0.14843,0.36328 -0.34765,0.66797 -0.59765,0.91406 -0.25,0.2461 -0.53907,0.4336 -0.86328,0.56641 -0.32422,0.1289 -0.66407,0.19531 -1.01563,0.19531 -0.35156,0 -0.6875,-0.0664 -1.01953,-0.19531 -0.32813,-0.13281 -0.61719,-0.32031 -0.86719,-0.56641 -0.25,-0.24609 -0.44922,-0.55078 -0.60156,-0.91406 -0.14844,-0.36328 -0.22266,-0.77344 -0.22266,-1.23828"
         id="path1263" />
      <path
         style="fill:#1c5cb3;fill-opacity:1;fill-rule:nonzero;stroke:none"
         d="m 395.68359,302.73437 h 1.34375 l 0.11328,0.97266 h 0.043 c 0.20313,-0.37891 0.44532,-0.66016 0.73047,-0.83984 0.28125,-0.17969 0.56641,-0.26563 0.85156,-0.26563 0.15625,0 0.28516,0.008 0.38672,0.0274 0.0977,0.0156 0.19141,0.043 0.27344,0.082 l -0.26953,1.42578 c -0.10547,-0.0312 -0.20313,-0.0547 -0.29297,-0.0703 -0.0898,-0.0117 -0.19141,-0.0234 -0.3125,-0.0234 -0.21094,0 -0.42578,0.0781 -0.65625,0.22656 -0.22656,0.14844 -0.41406,0.41406 -0.56641,0.79688 v 3.22656 h -1.64453 z m 0,0"
         id="path1265" />
      <path
         style="fill:#1c5cb3;fill-opacity:1;fill-rule:nonzero;stroke:none"
         d="m 331.10937,317.11719 c 0.89844,0 1.34766,-0.38672 1.34766,-1.16407 0,-0.3789 -0.11719,-0.64843 -0.34375,-0.80468 -0.22656,-0.16016 -0.5625,-0.23828 -1.00391,-0.23828 h -0.91796 v 2.20703 z m -2.5664,-3.51563 h 2.66797 c 0.39843,0 0.76953,0.0391 1.11718,0.11719 0.34375,0.0781 0.64844,0.20703 0.90625,0.39062 0.25782,0.1836 0.46094,0.42579 0.60938,0.73047 0.14844,0.30078 0.22656,0.67188 0.22656,1.11328 0,0.42579 -0.0781,0.79688 -0.23047,1.10938 -0.15234,0.31641 -0.35937,0.57031 -0.62109,0.77344 -0.26172,0.20312 -0.56641,0.35156 -0.91016,0.44922 -0.34375,0.0976 -0.70703,0.14453 -1.09765,0.14453 h -1.01953 v 2.47656 h -1.64844 z m 0,0"
         id="path1267" />
      <path
         style="fill:#1c5cb3;fill-opacity:1;fill-rule:nonzero;stroke:none"
         d="m 336.12109,318.12891 c 0,0.48437 0.0859,0.86718 0.25391,1.15234 0.16797,0.28516 0.42187,0.42578 0.76562,0.42578 0.33594,0 0.58985,-0.14062 0.76563,-0.42578 0.16797,-0.28516 0.25391,-0.66797 0.25391,-1.15234 0,-0.48829 -0.0859,-0.8711 -0.25391,-1.15625 -0.17578,-0.28125 -0.42969,-0.42579 -0.76563,-0.42579 -0.34375,0 -0.59765,0.14454 -0.76562,0.42579 -0.16797,0.28515 -0.25391,0.66796 -0.25391,1.15625 m -1.6914,0 c 0,-0.46485 0.0742,-0.87891 0.22656,-1.23829 0.14844,-0.36328 0.34766,-0.66796 0.59766,-0.91406 0.25,-0.24609 0.53906,-0.43359 0.86718,-0.5664 0.33203,-0.12891 0.66797,-0.19532 1.01953,-0.19532 0.35157,0 0.69141,0.0664 1.01563,0.19532 0.32422,0.13281 0.61328,0.32031 0.86328,0.5664 0.25,0.2461 0.44922,0.55078 0.59766,0.91406 0.14843,0.35938 0.22656,0.77344 0.22656,1.23829 0,0.46093 -0.0781,0.875 -0.22656,1.23828 -0.14844,0.35937 -0.34766,0.66406 -0.59766,0.91015 -0.25,0.25 -0.53906,0.4375 -0.86328,0.56641 -0.32422,0.13281 -0.66406,0.19531 -1.01563,0.19531 -0.35156,0 -0.6875,-0.0625 -1.01953,-0.19531 -0.32812,-0.12891 -0.61718,-0.31641 -0.86718,-0.56641 -0.25,-0.24609 -0.44922,-0.55078 -0.59766,-0.91015 -0.15234,-0.36328 -0.22656,-0.77735 -0.22656,-1.23828"
         id="path1269" />
      <path
         style="fill:#1c5cb3;fill-opacity:1;fill-rule:nonzero;stroke:none"
         d="M 340.72656,313.05078 H 342.375 V 319.25 c 0,0.16797 0.0312,0.28906 0.0937,0.35547 0.0664,0.0703 0.12891,0.10156 0.19922,0.10156 h 0.0937 c 0.0273,0 0.0625,-0.008 0.10547,-0.0195 l 0.20312,1.21875 c -0.0898,0.0391 -0.20312,0.0703 -0.34375,0.0937 -0.13672,0.0273 -0.30078,0.0391 -0.48437,0.0391 -0.28516,0 -0.52344,-0.043 -0.71875,-0.13281 -0.19532,-0.0898 -0.35157,-0.21484 -0.46485,-0.375 -0.11718,-0.16016 -0.19922,-0.35547 -0.2539,-0.58203 -0.0508,-0.23047 -0.0781,-0.48438 -0.0781,-0.76953 z m 0,0"
         id="path1271" />
      <path
         style="fill:#1c5cb3;fill-opacity:1;fill-rule:nonzero;stroke:none"
         d="m 343.97266,315.34766 h 1.64843 v 5.55859 h -1.64843 z m 0.82031,-0.81641 c -0.27735,0 -0.50391,-0.082 -0.6836,-0.24219 -0.17968,-0.16015 -0.26953,-0.36719 -0.26953,-0.62109 0,-0.25391 0.0899,-0.46094 0.26953,-0.61719 0.17969,-0.15625 0.40625,-0.23437 0.6836,-0.23437 0.28125,0 0.51172,0.0781 0.6875,0.23437 0.17578,0.15625 0.26562,0.36328 0.26562,0.61719 0,0.2539 -0.0898,0.46094 -0.26562,0.62109 -0.17578,0.16016 -0.40625,0.24219 -0.6875,0.24219"
         id="path1273" />
      <path
         style="fill:#1c5cb3;fill-opacity:1;fill-rule:nonzero;stroke:none"
         d="m 347.15625,319.23828 c 0.25391,0.19141 0.49609,0.33984 0.72656,0.4375 0.23438,0.0937 0.46875,0.14453 0.70703,0.14453 0.2461,0 0.42578,-0.043 0.53907,-0.125 0.10937,-0.082 0.16796,-0.19922 0.16796,-0.34765 0,-0.0899 -0.0312,-0.16797 -0.0937,-0.23829 -0.0664,-0.0742 -0.15234,-0.13671 -0.26171,-0.19921 -0.10547,-0.0586 -0.22657,-0.11329 -0.36329,-0.16016 -0.13281,-0.0508 -0.27343,-0.10156 -0.41406,-0.16406 -0.17187,-0.0664 -0.34375,-0.14453 -0.51562,-0.23438 -0.17188,-0.0898 -0.32813,-0.19922 -0.46875,-0.33203 -0.14453,-0.12891 -0.25782,-0.28125 -0.34766,-0.45703 -0.0898,-0.17578 -0.13672,-0.37891 -0.13672,-0.61328 0,-0.25391 0.0508,-0.48828 0.15235,-0.70313 0.10156,-0.21875 0.24609,-0.40234 0.42968,-0.55078 0.1875,-0.14844 0.41407,-0.26562 0.67578,-0.35156 0.26172,-0.0859 0.55079,-0.12891 0.875,-0.12891 0.42188,0 0.79688,0.0703 1.11719,0.21875 0.32031,0.14453 0.60156,0.3086 0.84375,0.48828 l -0.74219,0.98438 c -0.20312,-0.14844 -0.39843,-0.26563 -0.59375,-0.34766 -0.19531,-0.082 -0.38671,-0.12109 -0.58203,-0.12109 -0.41797,0 -0.6289,0.14453 -0.6289,0.43359 0,0.0899 0.0312,0.16797 0.0898,0.23047 0.0586,0.0625 0.14063,0.1211 0.24219,0.17578 0.10156,0.0508 0.21484,0.10157 0.34765,0.14844 0.12891,0.0508 0.26563,0.10156 0.41016,0.15234 0.17578,0.0664 0.35547,0.14454 0.53125,0.23047 0.17578,0.0859 0.33594,0.19141 0.48047,0.32032 0.14453,0.125 0.26172,0.28125 0.35156,0.46484 0.0937,0.18359 0.13672,0.39844 0.13672,0.65234 0,0.25782 -0.0508,0.49219 -0.14453,0.70703 -0.0977,0.21875 -0.24609,0.40625 -0.4375,0.56641 -0.19531,0.16016 -0.43359,0.28906 -0.71875,0.38281 -0.28516,0.0899 -0.61328,0.13672 -0.98438,0.13672 -0.36718,0 -0.74218,-0.0703 -1.1289,-0.21094 -0.38281,-0.14062 -0.71875,-0.32812 -1,-0.55859 z m 0,0"
         id="path1275" />
      <path
         style="fill:#1c5cb3;fill-opacity:1;fill-rule:nonzero;stroke:none"
         d="m 351.67187,313.05078 h 1.64844 v 1.92969 l -0.0781,0.99609 c 0.20703,-0.1875 0.44922,-0.35937 0.72656,-0.51953 0.27734,-0.16406 0.60547,-0.24219 0.98828,-0.24219 0.60156,0 1.04297,0.19922 1.31641,0.59375 0.26953,0.39453 0.40625,0.94532 0.40625,1.64844 v 3.44922 h -1.64453 v -3.23828 c 0,-0.40235 -0.0547,-0.67969 -0.16407,-0.82813 -0.10937,-0.14843 -0.28125,-0.22656 -0.51953,-0.22656 -0.21094,0 -0.39062,0.0469 -0.53906,0.14063 -0.14844,0.0937 -0.3125,0.22656 -0.49219,0.39843 v 3.75391 h -1.64844 z m 0,0"
         id="path1277" />
      <path
         style="fill:#1c5cb3;fill-opacity:1;fill-rule:nonzero;stroke:none"
         d="m 360.84766,318.85547 c 0.25781,0.22265 0.55078,0.40625 0.86718,0.55078 0.31641,0.14062 0.62891,0.21094 0.9336,0.21094 0.34375,0 0.60156,-0.0625 0.76953,-0.19141 0.16797,-0.125 0.25,-0.29687 0.25,-0.51562 0,-0.10938 -0.0234,-0.20704 -0.0703,-0.28907 -0.0508,-0.082 -0.1211,-0.15625 -0.21485,-0.21875 -0.0937,-0.0625 -0.20312,-0.125 -0.33594,-0.17968 -0.1289,-0.0547 -0.27343,-0.11719 -0.42968,-0.1836 l -0.95313,-0.40234 c -0.1875,-0.0781 -0.36719,-0.17188 -0.54297,-0.29297 -0.17578,-0.12109 -0.33203,-0.26172 -0.47265,-0.42188 -0.13672,-0.16015 -0.2461,-0.34765 -0.32813,-0.55859 -0.082,-0.21484 -0.125,-0.45312 -0.125,-0.72266 0,-0.30078 0.0664,-0.58203 0.19141,-0.84765 0.1289,-0.26563 0.30469,-0.4961 0.53906,-0.69531 0.23047,-0.19532 0.50391,-0.35157 0.82031,-0.46485 0.32032,-0.10937 0.66797,-0.16797 1.05078,-0.16797 0.42579,0 0.84375,0.0859 1.26172,0.25 0.41407,0.16016 0.77735,0.40235 1.08985,0.71485 l -0.83985,1.04297 c -0.23828,-0.1875 -0.48047,-0.33204 -0.71484,-0.4336 -0.24219,-0.0976 -0.50781,-0.14844 -0.79688,-0.14844 -0.28515,0 -0.51171,0.0547 -0.67968,0.17188 -0.16797,0.11719 -0.25,0.27734 -0.25,0.48828 0,0.10938 0.0273,0.20703 0.082,0.28516 0.0586,0.0781 0.13281,0.14843 0.23437,0.21484 0.10157,0.0625 0.21875,0.12109 0.35547,0.17578 0.13281,0.0586 0.27735,0.1211 0.4375,0.1875 l 0.9375,0.37891 c 0.44922,0.17969 0.80469,0.42578 1.0625,0.74219 0.25781,0.3125 0.38672,0.72656 0.38672,1.24218 0,0.30469 -0.0625,0.59375 -0.1875,0.86719 -0.12109,0.27344 -0.30078,0.51172 -0.53516,0.71875 -0.23828,0.20703 -0.52734,0.37109 -0.87109,0.49219 -0.34375,0.125 -0.73047,0.18359 -1.16406,0.18359 -0.48047,0 -0.95313,-0.0859 -1.42969,-0.26172 -0.47266,-0.17578 -0.89844,-0.4375 -1.26953,-0.78906 z m 0,0"
         id="path1279" />
      <path
         style="fill:#1c5cb3;fill-opacity:1;fill-rule:nonzero;stroke:none"
         d="m 365.94531,318.12891 c 0,-0.46485 0.0781,-0.87891 0.23438,-1.23829 0.15625,-0.36328 0.36718,-0.66796 0.63281,-0.91406 0.26562,-0.24609 0.57422,-0.43359 0.92578,-0.5664 0.35156,-0.12891 0.71484,-0.19532 1.09766,-0.19532 0.34375,0 0.65234,0.0586 0.92968,0.17188 0.27735,0.11719 0.50782,0.27344 0.69532,0.46484 l -0.75,1.01953 c -0.26172,-0.21484 -0.51953,-0.32422 -0.77344,-0.32422 -0.40625,0 -0.72266,0.14454 -0.95313,0.42579 -0.23046,0.28515 -0.34765,0.66796 -0.34765,1.15625 0,0.48437 0.11719,0.86718 0.35156,1.15234 0.23438,0.28516 0.53516,0.42578 0.89063,0.42578 0.20312,0 0.38671,-0.0391 0.55078,-0.12109 0.16406,-0.082 0.3125,-0.17578 0.44922,-0.28125 l 0.66015,1.04297 c -0.26953,0.23828 -0.57031,0.41406 -0.89844,0.52734 -0.32812,0.10937 -0.64453,0.16406 -0.94921,0.16406 -0.39063,0 -0.75,-0.0625 -1.08204,-0.19531 -0.33203,-0.12891 -0.62109,-0.31641 -0.86718,-0.56641 -0.25,-0.24609 -0.44141,-0.55078 -0.58594,-0.91015 -0.14063,-0.36328 -0.21094,-0.77735 -0.21094,-1.23828"
         id="path1281" />
      <path
         style="fill:#1c5cb3;fill-opacity:1;fill-rule:nonzero;stroke:none"
         d="m 371.30078,315.34766 h 1.64844 v 5.55859 h -1.64844 z m 0.81641,-0.81641 c -0.27344,0 -0.50391,-0.082 -0.6836,-0.24219 -0.17578,-0.16015 -0.26953,-0.36719 -0.26953,-0.62109 0,-0.25391 0.0937,-0.46094 0.26953,-0.61719 0.17969,-0.15625 0.41016,-0.23437 0.6836,-0.23437 0.28515,0 0.51562,0.0781 0.6914,0.23437 0.17578,0.15625 0.26172,0.36328 0.26172,0.61719 0,0.2539 -0.0859,0.46094 -0.26172,0.62109 -0.17578,0.16016 -0.40625,0.24219 -0.6914,0.24219"
         id="path1283" />
      <path
         style="fill:#1c5cb3;fill-opacity:1;fill-rule:nonzero;stroke:none"
         d="m 377.45312,317.55469 c 0,-0.32032 -0.0703,-0.58203 -0.21484,-0.78125 -0.14062,-0.20313 -0.37891,-0.30469 -0.71484,-0.30469 -0.26172,0 -0.49219,0.0898 -0.69141,0.26172 -0.19531,0.17578 -0.32422,0.45312 -0.38672,0.82422 z m -3.58593,0.57422 c 0,-0.44922 0.0742,-0.85547 0.22265,-1.21875 0.14844,-0.35938 0.34766,-0.66797 0.58985,-0.91797 0.24218,-0.25 0.51953,-0.44141 0.83203,-0.57422 0.3164,-0.13672 0.64062,-0.20313 0.97656,-0.20313 0.39453,0 0.74219,0.0664 1.03516,0.20313 0.29687,0.13281 0.54297,0.32031 0.74218,0.55859 0.19532,0.23828 0.34375,0.51953 0.44141,0.84375 0.0977,0.32813 0.14453,0.67969 0.14453,1.0625 0,0.14844 -0.008,0.28516 -0.0195,0.40625 -0.0156,0.125 -0.0312,0.21875 -0.0469,0.28516 h -3.32813 c 0.0742,0.42578 0.24219,0.73437 0.5,0.92578 0.25781,0.19141 0.57031,0.28516 0.94531,0.28516 0.39844,0 0.79688,-0.125 1.19922,-0.36719 l 0.55078,0.99609 c -0.28515,0.19141 -0.60156,0.34766 -0.94922,0.46094 -0.34765,0.10937 -0.6875,0.16797 -1.02343,0.16797 -0.39844,0 -0.76563,-0.0664 -1.10938,-0.19922 -0.34375,-0.12891 -0.64453,-0.32031 -0.89844,-0.57031 -0.2539,-0.25 -0.44921,-0.55469 -0.59375,-0.91407 -0.14062,-0.35937 -0.21093,-0.76953 -0.21093,-1.23046"
         id="path1285" />
      <path
         style="fill:#1c5cb3;fill-opacity:1;fill-rule:nonzero;stroke:none"
         d="m 379.79297,315.34766 h 1.34765 l 0.10938,0.70703 h 0.0469 c 0.23829,-0.22266 0.5,-0.42188 0.78125,-0.58985 0.28516,-0.16797 0.61719,-0.25 1,-0.25 0.60547,0 1.04297,0.19922 1.31641,0.59375 0.26953,0.39453 0.41016,0.94532 0.41016,1.64844 v 3.44922 h -1.64844 v -3.23828 c 0,-0.40235 -0.0547,-0.67969 -0.16406,-0.82813 -0.10547,-0.14843 -0.28125,-0.22656 -0.51953,-0.22656 -0.21094,0 -0.39063,0.0469 -0.53907,0.14063 -0.14843,0.0937 -0.3125,0.22656 -0.49218,0.39843 v 3.75391 H 379.793 Z m 0,0"
         id="path1287" />
      <path
         style="fill:#1c5cb3;fill-opacity:1;fill-rule:nonzero;stroke:none"
         d="m 385.67578,318.12891 c 0,-0.46485 0.0781,-0.87891 0.23438,-1.23829 0.16015,-0.36328 0.37109,-0.66796 0.63281,-0.91406 0.26562,-0.24609 0.57422,-0.43359 0.92578,-0.5664 0.35156,-0.12891 0.71875,-0.19532 1.09766,-0.19532 0.34375,0 0.65625,0.0586 0.92968,0.17188 0.27735,0.11719 0.50782,0.27344 0.69532,0.46484 l -0.75,1.01953 c -0.26172,-0.21484 -0.51954,-0.32422 -0.77344,-0.32422 -0.40235,0 -0.71875,0.14454 -0.95313,0.42579 -0.23047,0.28515 -0.34765,0.66796 -0.34765,1.15625 0,0.48437 0.12109,0.86718 0.35547,1.15234 0.23437,0.28516 0.53125,0.42578 0.89062,0.42578 0.20313,0 0.38281,-0.0391 0.54688,-0.12109 0.16406,-0.082 0.3164,-0.17578 0.44921,-0.28125 l 0.66016,1.04297 c -0.26953,0.23828 -0.56641,0.41406 -0.89453,0.52734 -0.32813,0.10937 -0.64844,0.16406 -0.95313,0.16406 -0.38671,0 -0.75,-0.0625 -1.08203,-0.19531 -0.33203,-0.12891 -0.62109,-0.31641 -0.86718,-0.56641 -0.2461,-0.24609 -0.44141,-0.55078 -0.58204,-0.91015 -0.14453,-0.36328 -0.21484,-0.77735 -0.21484,-1.23828"
         id="path1289" />
      <path
         style="fill:#1c5cb3;fill-opacity:1;fill-rule:nonzero;stroke:none"
         d="m 394.29297,317.55469 c 0,-0.32032 -0.0703,-0.58203 -0.21094,-0.78125 -0.14453,-0.20313 -0.38281,-0.30469 -0.71875,-0.30469 -0.26172,0 -0.49219,0.0898 -0.6875,0.26172 -0.19922,0.17578 -0.32812,0.45312 -0.38672,0.82422 z m -3.58594,0.57422 c 0,-0.44922 0.0742,-0.85547 0.22266,-1.21875 0.15234,-0.35938 0.34765,-0.66797 0.58984,-0.91797 0.24219,-0.25 0.52344,-0.44141 0.83594,-0.57422 0.3125,-0.13672 0.63672,-0.20313 0.97265,-0.20313 0.39844,0 0.74219,0.0664 1.03907,0.20313 0.29297,0.13281 0.53906,0.32031 0.73828,0.55859 0.19922,0.23828 0.34765,0.51953 0.4414,0.84375 0.0977,0.32813 0.14844,0.67969 0.14844,1.0625 0,0.14844 -0.008,0.28516 -0.0234,0.40625 -0.0156,0.125 -0.0312,0.21875 -0.0469,0.28516 h -3.32813 c 0.0781,0.42578 0.24219,0.73437 0.5,0.92578 0.25782,0.19141 0.57422,0.28516 0.94922,0.28516 0.39453,0 0.79297,-0.125 1.19922,-0.36719 l 0.54688,0.99609 c -0.28516,0.19141 -0.60157,0.34766 -0.94532,0.46094 -0.34765,0.10937 -0.6914,0.16797 -1.02734,0.16797 -0.39453,0 -0.76562,-0.0664 -1.10937,-0.19922 -0.34375,-0.12891 -0.64063,-0.32031 -0.89454,-0.57031 -0.2539,-0.25 -0.45312,-0.55469 -0.59375,-0.91407 -0.14453,-0.35937 -0.21484,-0.76953 -0.21484,-1.23046"
         id="path1291" />
    </g>
  </g>
</svg>
